<?xml version="1.0" encoding="UTF-8" standalone="no"?>
<!DOCTYPE svg PUBLIC "-//W3C//DTD SVG 1.1//EN" "http://www.w3.org/Graphics/SVG/1.1/DTD/svg11.dtd">
<svg width="100%" height="100%" viewBox="0 0 500 500" version="1.1" xmlns="http://www.w3.org/2000/svg" xmlns:xlink="http://www.w3.org/1999/xlink" xml:space="preserve" xmlns:serif="http://www.serif.com/" style="fill-rule:evenodd;clip-rule:evenodd;stroke-miterlimit:10;">
    <g id="OBJECTS">
        <g>
            <g>
                <path d="M100.543,263.052C89.945,263.052 81.354,254.461 81.354,243.863L81.354,190.83C81.354,180.232 89.945,171.641 100.543,171.641C111.141,171.641 119.732,180.232 119.732,190.83L119.732,243.863C119.731,254.46 111.14,263.052 100.543,263.052Z" style="fill:none;fill-rule:nonzero;stroke:black;stroke-width:0.25px;"/>
                <g>
                    <g>
                        <clipPath id="_clip1">
                            <path d="M100.543,263.052C89.945,263.052 81.354,254.461 81.354,243.863L81.354,190.83C81.354,180.232 89.945,171.641 100.543,171.641C111.141,171.641 119.732,180.232 119.732,190.83L119.732,243.863C119.731,254.46 111.14,263.052 100.543,263.052Z"/>
                        </clipPath>
                        <g clip-path="url(#_clip1)">
                            <path d="M132.497,169.328L63.69,202.391" style="fill:none;fill-rule:nonzero;stroke:black;stroke-width:0.25px;"/>
                            <path d="M132.497,180.945L63.69,214.008" style="fill:none;fill-rule:nonzero;stroke:black;stroke-width:0.25px;"/>
                            <path d="M132.497,192.561L63.69,225.624" style="fill:none;fill-rule:nonzero;stroke:black;stroke-width:0.25px;"/>
                            <path d="M132.497,204.178L63.69,237.241" style="fill:none;fill-rule:nonzero;stroke:black;stroke-width:0.25px;"/>
                            <path d="M132.497,215.795L63.69,248.858" style="fill:none;fill-rule:nonzero;stroke:black;stroke-width:0.25px;"/>
                            <path d="M132.497,227.412L63.69,260.474" style="fill:none;fill-rule:nonzero;stroke:black;stroke-width:0.25px;"/>
                            <path d="M132.497,239.028L63.69,272.091" style="fill:none;fill-rule:nonzero;stroke:black;stroke-width:0.25px;"/>
                        </g>
                    </g>
                </g>
            </g>
            <g>
                <clipPath id="_clip2">
                    <path d="M401.245,127.275C411.387,127.275 419.61,135.497 419.61,145.639L419.61,243.256C419.61,253.398 411.388,261.62 401.245,261.62C391.103,261.62 382.881,253.398 382.881,243.256L382.881,145.639C382.88,135.497 391.102,127.275 401.245,127.275Z"/>
                </clipPath>
                <g clip-path="url(#_clip2)">
                    <path d="M401.245,127.275C411.387,127.275 419.61,135.497 419.61,145.639L419.61,243.256C419.61,253.398 411.388,261.62 401.245,261.62C391.103,261.62 382.881,253.398 382.881,243.256L382.881,145.639C382.88,135.497 391.102,127.275 401.245,127.275Z" style="fill:none;fill-rule:nonzero;stroke:black;stroke-width:0.25px;"/>
                </g>
                <g>
                    <clipPath id="_clip3">
                        <path d="M401.245,127.275C411.387,127.275 419.61,135.497 419.61,145.639L419.61,243.256C419.61,253.398 411.388,261.62 401.245,261.62C391.103,261.62 382.881,253.398 382.881,243.256L382.881,145.639C382.88,135.497 391.102,127.275 401.245,127.275Z"/>
                    </clipPath>
                    <g clip-path="url(#_clip3)">
                        <path d="M373.48,225.56L435.895,280.234" style="fill:none;fill-rule:nonzero;stroke:black;stroke-width:0.25px;"/>
                        <path d="M373.48,205.723L435.895,260.397" style="fill:none;fill-rule:nonzero;stroke:black;stroke-width:0.25px;"/>
                        <path d="M373.48,185.886L435.895,240.559" style="fill:none;fill-rule:nonzero;stroke:black;stroke-width:0.25px;"/>
                        <path d="M373.48,166.048L435.895,220.722" style="fill:none;fill-rule:nonzero;stroke:black;stroke-width:0.25px;"/>
                        <path d="M373.48,146.211L435.895,200.885" style="fill:none;fill-rule:nonzero;stroke:black;stroke-width:0.25px;"/>
                        <path d="M373.48,126.374L435.895,181.047" style="fill:none;fill-rule:nonzero;stroke:black;stroke-width:0.25px;"/>
                        <path d="M373.48,106.536L435.895,161.21" style="fill:none;fill-rule:nonzero;stroke:black;stroke-width:0.25px;"/>
                        <path d="M373.48,161.21L435.895,106.536" style="fill:none;fill-rule:nonzero;stroke:black;stroke-width:0.25px;"/>
                        <path d="M373.48,181.047L435.895,126.374" style="fill:none;fill-rule:nonzero;stroke:black;stroke-width:0.25px;"/>
                        <path d="M373.48,200.885L435.895,146.211" style="fill:none;fill-rule:nonzero;stroke:black;stroke-width:0.25px;"/>
                        <path d="M373.48,220.722L435.895,166.048" style="fill:none;fill-rule:nonzero;stroke:black;stroke-width:0.25px;"/>
                        <path d="M373.48,240.559L435.895,185.886" style="fill:none;fill-rule:nonzero;stroke:black;stroke-width:0.25px;"/>
                        <path d="M373.48,260.397L435.895,205.723" style="fill:none;fill-rule:nonzero;stroke:black;stroke-width:0.25px;"/>
                        <path d="M373.48,280.234L435.895,225.56" style="fill:none;fill-rule:nonzero;stroke:black;stroke-width:0.25px;"/>
                    </g>
                </g>
            </g>
            <g>
                <path d="M429.628,331.951C429.628,341.689 421.734,349.583 411.996,349.583L301.033,349.583C291.295,349.583 283.401,341.689 283.401,331.952C283.401,322.214 291.295,314.321 301.033,314.321L411.997,314.321C421.734,314.319 429.628,322.213 429.628,331.951Z" style="fill:none;fill-rule:nonzero;stroke:black;stroke-width:0.25px;"/>
                <g>
                    <g>
                        <clipPath id="_clip4">
                            <path d="M429.628,331.951C429.628,341.689 421.734,349.583 411.996,349.583L301.033,349.583C291.295,349.583 283.401,341.689 283.401,331.952C283.401,322.214 291.295,314.321 301.033,314.321L411.997,314.321C421.734,314.319 429.628,322.213 429.628,331.951Z"/>
                        </clipPath>
                        <g clip-path="url(#_clip4)">
                            <path d="M428.602,291.605C422.732,292.831 419.072,300.187 421.634,305.609C422.768,308.009 424.802,309.851 426.262,312.068C427.722,314.284 428.546,317.327 427.061,319.527C426.412,320.489 425.412,321.147 424.453,321.801C420.947,324.194 417.296,327.665 417.779,331.882C418.424,337.518 426.241,341.491 424.501,346.891C423.347,350.472 418.791,351.425 415.955,353.897C412.893,356.566 411.982,361.072 412.644,365.079C413.306,369.086 415.298,372.732 417.267,376.284" style="fill:none;fill-rule:nonzero;stroke:black;stroke-width:0.25px;"/>
                            <path d="M421.217,291.22C415.347,292.446 411.686,299.802 414.249,305.224C415.383,307.624 417.417,309.466 418.877,311.683C420.337,313.899 421.161,316.943 419.676,319.142C419.027,320.104 418.027,320.762 417.068,321.416C413.562,323.809 409.911,327.28 410.394,331.497C411.039,337.133 418.856,341.106 417.116,346.506C415.962,350.087 411.406,351.04 408.57,353.512C405.508,356.181 404.597,360.687 405.259,364.694C405.921,368.701 407.913,372.347 409.882,375.899" style="fill:none;fill-rule:nonzero;stroke:black;stroke-width:0.25px;"/>
                            <path d="M413.833,290.834C407.963,292.06 404.303,299.416 406.865,304.838C407.999,307.238 410.033,309.08 411.493,311.297C412.953,313.513 413.777,316.557 412.292,318.756C411.643,319.718 410.643,320.376 409.684,321.03C406.178,323.423 402.527,326.894 403.01,331.111C403.655,336.747 411.472,340.72 409.733,346.12C408.579,349.701 404.023,350.654 401.187,353.126C398.125,355.795 397.214,360.301 397.876,364.308C398.538,368.315 400.53,371.961 402.499,375.513" style="fill:none;fill-rule:nonzero;stroke:black;stroke-width:0.25px;"/>
                            <path d="M406.449,290.448C400.579,291.674 396.919,299.03 399.481,304.452C400.615,306.852 402.649,308.694 404.109,310.911C405.569,313.127 406.393,316.17 404.908,318.37C404.259,319.332 403.259,319.99 402.3,320.644C398.794,323.037 395.143,326.508 395.626,330.725C396.271,336.361 404.088,340.334 402.348,345.734C401.194,349.315 396.638,350.268 393.802,352.74C390.74,355.409 389.829,359.915 390.491,363.922C391.153,367.929 393.144,371.575 395.114,375.127" style="fill:none;fill-rule:nonzero;stroke:black;stroke-width:0.25px;"/>
                            <path d="M399.065,290.062C393.195,291.288 389.535,298.644 392.097,304.066C393.231,306.465 395.265,308.308 396.725,310.525C398.185,312.741 399.009,315.784 397.524,317.984C396.875,318.946 395.875,319.604 394.916,320.258C391.41,322.651 387.759,326.122 388.242,330.339C388.887,335.975 396.704,339.948 394.964,345.348C393.81,348.929 389.254,349.882 386.418,352.354C383.356,355.023 382.445,359.529 383.107,363.536C383.769,367.543 385.761,371.189 387.73,374.741" style="fill:none;fill-rule:nonzero;stroke:black;stroke-width:0.25px;"/>
                            <path d="M391.681,289.676C385.811,290.902 382.15,298.258 384.713,303.68C385.847,306.08 387.881,307.922 389.341,310.139C390.801,312.355 391.625,315.398 390.14,317.598C389.491,318.56 388.491,319.218 387.532,319.872C384.026,322.265 380.375,325.736 380.858,329.953C381.503,335.589 389.32,339.562 387.581,344.962C386.427,348.543 381.871,349.496 379.035,351.968C375.973,354.637 375.062,359.143 375.724,363.15C376.386,367.157 378.377,370.803 380.347,374.355" style="fill:none;fill-rule:nonzero;stroke:black;stroke-width:0.25px;"/>
                            <path d="M384.297,289.29C378.427,290.516 374.767,297.872 377.329,303.294C378.463,305.694 380.497,307.536 381.957,309.753C383.417,311.969 384.241,315.012 382.756,317.212C382.107,318.174 381.107,318.832 380.148,319.486C376.642,321.879 372.991,325.35 373.474,329.567C374.119,335.203 381.936,339.176 380.196,344.576C379.042,348.157 374.486,349.11 371.65,351.582C368.588,354.251 367.677,358.757 368.339,362.764C369.001,366.771 370.992,370.417 372.962,373.969" style="fill:none;fill-rule:nonzero;stroke:black;stroke-width:0.25px;"/>
                            <path d="M376.913,288.904C371.043,290.13 367.383,297.486 369.945,302.908C371.079,305.308 373.113,307.15 374.573,309.367C376.033,311.583 376.857,314.627 375.372,316.826C374.723,317.788 373.723,318.446 372.764,319.1C369.258,321.493 365.607,324.964 366.09,329.181C366.735,334.817 374.552,338.79 372.812,344.19C371.658,347.771 367.102,348.724 364.266,351.196C361.204,353.865 360.293,358.371 360.955,362.378C361.617,366.385 363.609,370.031 365.578,373.583" style="fill:none;fill-rule:nonzero;stroke:black;stroke-width:0.25px;"/>
                            <path d="M369.529,288.518C363.659,289.744 359.998,297.1 362.561,302.522C363.695,304.922 365.729,306.764 367.189,308.981C368.649,311.198 369.473,314.241 367.988,316.44C367.339,317.402 366.339,318.06 365.38,318.714C361.874,321.107 358.223,324.578 358.706,328.795C359.351,334.431 367.168,338.404 365.429,343.804C364.275,347.385 359.719,348.338 356.883,350.81C353.821,353.479 352.91,357.985 353.572,361.992C354.234,365.999 356.226,369.645 358.195,373.197" style="fill:none;fill-rule:nonzero;stroke:black;stroke-width:0.25px;"/>
                            <path d="M362.144,288.132C356.274,289.358 352.613,296.714 355.176,302.136C356.31,304.536 358.344,306.378 359.804,308.595C361.264,310.812 362.088,313.854 360.603,316.054C359.954,317.016 358.954,317.674 357.995,318.328C354.489,320.721 350.838,324.192 351.321,328.409C351.966,334.045 359.783,338.018 358.043,343.418C356.889,346.999 352.333,347.952 349.497,350.424C346.435,353.093 345.524,357.599 346.186,361.606C346.848,365.613 348.839,369.259 350.809,372.811" style="fill:none;fill-rule:nonzero;stroke:black;stroke-width:0.25px;"/>
                            <path d="M354.76,287.746C348.89,288.972 345.23,296.328 347.792,301.75C348.926,304.149 350.96,305.992 352.42,308.209C353.88,310.425 354.704,313.468 353.219,315.668C352.57,316.63 351.57,317.288 350.611,317.942C347.105,320.335 343.454,323.806 343.937,328.023C344.582,333.659 352.399,337.633 350.659,343.032C349.505,346.613 344.949,347.566 342.113,350.038C339.051,352.707 338.14,357.213 338.802,361.22C339.464,365.227 341.456,368.873 343.425,372.425" style="fill:none;fill-rule:nonzero;stroke:black;stroke-width:0.25px;"/>
                            <path d="M347.376,287.361C341.506,288.587 337.846,295.943 340.408,301.365C341.542,303.765 343.576,305.607 345.036,307.824C346.496,310.04 347.32,313.083 345.835,315.283C345.186,316.245 344.186,316.903 343.227,317.557C339.721,319.95 336.07,323.421 336.553,327.638C337.198,333.274 345.015,337.247 343.275,342.647C342.121,346.228 337.565,347.181 334.729,349.653C331.667,352.322 330.756,356.828 331.418,360.835C332.08,364.842 334.072,368.488 336.041,372.04" style="fill:none;fill-rule:nonzero;stroke:black;stroke-width:0.25px;"/>
                            <path d="M339.992,286.975C334.122,288.201 330.461,295.557 333.024,300.979C334.158,303.378 336.192,305.221 337.652,307.438C339.112,309.654 339.936,312.697 338.451,314.897C337.802,315.859 336.802,316.517 335.843,317.171C332.337,319.564 328.686,323.035 329.169,327.252C329.814,332.888 337.631,336.861 335.891,342.261C334.737,345.842 330.181,346.795 327.345,349.267C324.283,351.936 323.372,356.442 324.034,360.449C324.696,364.456 326.688,368.102 328.657,371.654" style="fill:none;fill-rule:nonzero;stroke:black;stroke-width:0.25px;"/>
                            <path d="M332.608,286.589C326.738,287.815 323.077,295.171 325.64,300.593C326.774,302.992 328.808,304.835 330.268,307.052C331.728,309.268 332.552,312.312 331.067,314.511C330.418,315.473 329.418,316.131 328.459,316.785C324.953,319.178 321.302,322.649 321.785,326.866C322.43,332.502 330.247,336.476 328.507,341.875C327.353,345.456 322.797,346.409 319.961,348.881C316.899,351.55 315.988,356.056 316.65,360.063C317.312,364.07 319.304,367.716 321.273,371.268" style="fill:none;fill-rule:nonzero;stroke:black;stroke-width:0.25px;"/>
                            <path d="M325.224,286.203C319.354,287.429 315.693,294.785 318.256,300.207C319.39,302.606 321.424,304.449 322.884,306.666C324.344,308.882 325.168,311.926 323.683,314.125C323.034,315.087 322.034,315.745 321.075,316.399C317.57,318.792 313.918,322.263 314.401,326.48C315.046,332.116 322.863,336.09 321.124,341.489C319.97,345.07 315.414,346.023 312.578,348.495C309.516,351.164 308.605,355.67 309.267,359.677C309.929,363.684 311.921,367.33 313.89,370.882" style="fill:none;fill-rule:nonzero;stroke:black;stroke-width:0.25px;"/>
                            <path d="M317.84,285.817C311.97,287.043 308.31,294.399 310.872,299.821C312.006,302.22 314.04,304.063 315.5,306.28C316.96,308.496 317.784,311.539 316.299,313.739C315.65,314.701 314.65,315.359 313.691,316.013C310.185,318.406 306.534,321.877 307.017,326.094C307.662,331.73 315.479,335.704 313.739,341.103C312.585,344.684 308.029,345.637 305.193,348.109C302.131,350.778 301.22,355.284 301.882,359.291C302.544,363.298 304.536,366.944 306.505,370.496" style="fill:none;fill-rule:nonzero;stroke:black;stroke-width:0.25px;"/>
                            <path d="M310.456,285.431C304.586,286.657 300.925,294.013 303.488,299.435C304.622,301.834 306.656,303.677 308.116,305.894C309.576,308.11 310.4,311.153 308.915,313.353C308.266,314.315 307.266,314.973 306.307,315.627C302.801,318.02 299.15,321.491 299.633,325.708C300.278,331.344 308.095,335.318 306.355,340.717C305.201,344.298 300.645,345.251 297.809,347.723C294.747,350.392 293.836,354.898 294.498,358.905C295.16,362.912 297.152,366.558 299.121,370.11" style="fill:none;fill-rule:nonzero;stroke:black;stroke-width:0.25px;"/>
                            <path d="M303.071,285.045C297.201,286.271 293.54,293.627 296.103,299.049C297.237,301.448 299.271,303.291 300.731,305.508C302.191,307.724 303.015,310.767 301.53,312.967C300.881,313.929 299.881,314.587 298.922,315.241C295.417,317.634 291.765,321.105 292.248,325.322C292.893,330.958 300.71,334.931 298.97,340.331C297.816,343.912 293.26,344.865 290.424,347.337C287.362,350.006 286.451,354.512 287.113,358.519C287.775,362.526 289.767,366.172 291.736,369.724" style="fill:none;fill-rule:nonzero;stroke:black;stroke-width:0.25px;"/>
                            <path d="M295.687,284.659C289.817,285.885 286.157,293.241 288.719,298.663C289.853,301.062 291.887,302.905 293.347,305.122C294.807,307.338 295.631,310.381 294.147,312.581C293.498,313.543 292.498,314.201 291.539,314.855C288.033,317.248 284.382,320.719 284.865,324.936C285.51,330.572 293.327,334.545 291.588,339.945C290.434,343.526 285.878,344.479 283.042,346.951C279.98,349.62 279.069,354.126 279.731,358.133C280.393,362.14 282.385,365.786 284.354,369.338" style="fill:none;fill-rule:nonzero;stroke:black;stroke-width:0.25px;"/>
                        </g>
                    </g>
                </g>
            </g>
            <rect x="103.823" y="95.283" width="299.188" height="235.828" style="fill:rgb(230,233,255);"/>
            <rect x="103.823" y="79.312" width="299.188" height="17.337" style="fill:rgb(196,205,255);"/>
            <g>
                <g>
                    <rect x="127.426" y="117.954" width="30.978" height="31.105" style="fill:rgb(196,205,255);"/>
                    <rect x="164.479" y="117.954" width="30.978" height="31.105" style="fill:rgb(212,113,114);stroke:black;stroke-width:0.5px;"/>
                    <rect x="201.531" y="117.954" width="30.978" height="31.105" style="fill:rgb(196,205,255);"/>
                    <rect x="238.584" y="117.954" width="30.978" height="31.105" style="fill:rgb(196,205,255);"/>
                    <rect x="275.636" y="117.954" width="30.978" height="31.105" style="fill:rgb(196,205,255);"/>
                    <rect x="312.689" y="117.954" width="30.978" height="31.105" style="fill:rgb(212,113,114);stroke:black;stroke-width:0.5px;"/>
                    <rect x="348.527" y="117.954" width="30.978" height="31.105" style="fill:rgb(196,205,255);"/>
                </g>
                <g>
                    <rect x="127.426" y="155.463" width="30.978" height="31.105" style="fill:rgb(212,113,114);stroke:black;stroke-width:0.5px;"/>
                    <rect x="164.479" y="155.463" width="30.978" height="31.105" style="fill:rgb(196,205,255);"/>
                    <rect x="201.531" y="155.463" width="30.978" height="31.105" style="fill:rgb(196,205,255);"/>
                    <rect x="238.584" y="155.463" width="30.978" height="31.105" style="fill:rgb(212,113,114);stroke:black;stroke-width:0.5px;"/>
                    <rect x="275.636" y="155.463" width="30.978" height="31.105" style="fill:rgb(196,205,255);"/>
                    <rect x="312.689" y="155.463" width="30.978" height="31.105" style="fill:rgb(196,205,255);"/>
                    <rect x="348.527" y="155.463" width="30.978" height="31.105" style="fill:rgb(212,113,114);stroke:black;stroke-width:0.5px;"/>
                </g>
                <g>
                    <rect x="127.426" y="192.972" width="30.978" height="31.105" style="fill:rgb(196,205,255);"/>
                    <rect x="164.479" y="192.972" width="30.978" height="31.105" style="fill:rgb(196,205,255);"/>
                    <rect x="201.531" y="192.972" width="30.978" height="31.105" style="fill:rgb(196,205,255);"/>
                    <rect x="238.584" y="192.972" width="30.978" height="31.105" style="fill:rgb(196,205,255);"/>
                    <rect x="275.636" y="192.972" width="30.978" height="31.105" style="fill:rgb(212,113,114);stroke:black;stroke-width:0.5px;"/>
                    <rect x="312.689" y="192.972" width="30.978" height="31.105" style="fill:rgb(196,205,255);"/>
                    <rect x="348.527" y="192.972" width="30.978" height="31.105" style="fill:rgb(196,205,255);"/>
                </g>
                <g>
                    <rect x="127.426" y="230.482" width="30.978" height="31.105" style="fill:rgb(196,205,255);"/>
                    <rect x="164.479" y="230.482" width="30.978" height="31.105" style="fill:rgb(196,205,255);"/>
                    <rect x="201.531" y="230.482" width="30.978" height="31.105" style="fill:rgb(196,205,255);"/>
                    <rect x="238.584" y="230.482" width="30.978" height="31.105" style="fill:rgb(212,113,114);stroke:black;stroke-width:0.5px;"/>
                    <rect x="275.636" y="230.482" width="30.978" height="31.105" style="fill:rgb(196,205,255);"/>
                    <rect x="312.689" y="230.482" width="30.978" height="31.105" style="fill:rgb(212,113,114);stroke:black;stroke-width:0.5px;"/>
                    <rect x="348.527" y="230.482" width="30.978" height="31.105" style="fill:rgb(196,205,255);"/>
                </g>
                <g>
                    <rect x="127.426" y="267.991" width="30.978" height="31.105" style="fill:rgb(196,205,255);"/>
                    <rect x="164.479" y="267.991" width="30.978" height="31.105" style="fill:rgb(196,205,255);"/>
                    <rect x="201.531" y="267.991" width="30.978" height="31.105" style="fill:rgb(196,205,255);"/>
                    <rect x="238.584" y="267.991" width="30.978" height="31.105" style="fill:rgb(212,113,114);stroke:black;stroke-width:0.5px;"/>
                </g>
                <path d="M362.416,171.04L427.738,170.665" style="fill:none;fill-rule:nonzero;stroke:rgb(34,34,33);stroke-width:0.5px;"/>
                <path d="M365.419,170.852C365.419,172.303 364.243,173.48 362.791,173.48C361.34,173.48 360.163,172.304 360.163,170.852C360.163,169.401 361.339,168.224 362.791,168.224C364.243,168.225 365.419,169.401 365.419,170.852Z" style="fill-rule:nonzero;"/>
            </g>
            <g>
                <path d="M71.193,139.158L142.915,169.479" style="fill:none;fill-rule:nonzero;stroke:rgb(34,34,33);stroke-width:0.5px;"/>
                <path d="M143.121,169.435C143.121,171.171 141.713,172.579 139.977,172.579C138.241,172.579 136.833,171.171 136.833,169.435C136.833,167.699 138.241,166.291 139.977,166.291C141.713,166.291 143.121,167.698 143.121,169.435Z" style="fill:rgb(34,34,33);fill-rule:nonzero;"/>
            </g>
            <g>
                <path d="M443.632,152.275L443.632,188.114C433.857,187.968 425.977,180.004 425.977,170.194C425.977,160.384 433.857,152.42 443.632,152.275Z" style="fill:rgb(216,156,199);fill-rule:nonzero;stroke:black;stroke-width:0.5px;"/>
                <path d="M443.505,159.59L443.505,180.798C437.721,180.712 433.058,175.999 433.058,170.194C433.058,164.389 437.721,159.676 443.505,159.59Z" style="fill-rule:nonzero;"/>
            </g>
            <g>
                <path d="M440.098,303.792L430.627,298.715L421.076,303.638L422.978,293.062L415.343,285.5L425.99,284.04L430.823,274.443L435.501,284.117L446.122,285.748L438.367,293.186L440.098,303.792Z" style="fill:rgb(212,113,114);fill-rule:nonzero;stroke:black;stroke-width:0.5px;"/>
                <path d="M435.393,297.488L430.666,294.954L425.899,297.412L426.848,292.133L423.038,288.359L428.351,287.63L430.764,282.84L433.099,287.668L438.4,288.483L434.529,292.195L435.393,297.488Z" style="fill-rule:nonzero;"/>
            </g>
            <path d="M300.677,104.643L294.968,101.582L289.21,104.55L290.357,98.175L285.755,93.616L292.172,92.736L295.086,86.951L297.905,92.783L304.308,93.766L299.633,98.25L300.677,104.643Z" style="fill-rule:nonzero;"/>
            <g>
                <g>
                    <path d="M154.765,436.091C154.87,436.406 154.986,436.738 155.258,436.977C155.563,437.246 156.005,437.35 156.422,437.439C160.03,438.212 163.673,438.818 167.33,439.254C165.869,428.326 166.882,417.267 165.266,406.408C164.839,403.541 164.21,400.645 162.724,398.104C161.237,395.562 158.776,393.39 155.748,392.741C152.72,392.092 149.172,393.274 147.775,395.859C146.832,397.603 146.944,399.664 147.148,401.608C148.388,413.456 150.973,424.719 154.765,436.091Z" style="fill:white;fill-rule:nonzero;stroke:rgb(34,34,33);stroke-width:0.5px;"/>
                    <path d="M153.763,435.929C155.558,436.232 157.419,436.297 159.171,436.232C161.922,436.129 164.702,435.721 167.186,434.623C168.082,435.089 169.059,436.108 170.08,436.519C173.589,437.931 177.098,439.344 180.607,440.756C183.243,441.817 185.904,442.891 188.214,444.481C188.769,444.863 189.334,445.319 189.499,445.943C190.21,448.641 183.095,447.815 181.663,447.801C177.831,447.765 174.039,447.418 170.211,447.375C166.977,447.339 163.732,447.427 160.511,447.266C158.593,447.17 155.543,447.986 154.121,446.585C153.01,445.491 153.078,443.272 153.387,441.918C153.83,439.97 153.838,437.89 153.763,435.929Z" style="fill:rgb(22,17,17);fill-rule:nonzero;"/>
                    <path d="M108.516,437.42C108.476,437.732 108.429,438.06 108.206,438.294C107.956,438.556 107.534,438.652 107.134,438.734C103.674,439.44 100.143,439.978 96.562,440.347C95.492,440.457 95,403.588 95.407,400.437C95.601,398.935 95.835,397.422 96.408,396.007C96.658,395.39 96.984,394.779 97.516,394.344C98.069,393.892 98.803,393.67 99.533,393.59C101.519,393.372 103.527,394.146 105.044,395.36C106.56,396.575 107.64,398.195 108.521,399.868C111.575,405.663 112.433,412.43 111.01,418.742C109.628,424.887 109.32,431.125 108.516,437.42Z" style="fill:white;fill-rule:nonzero;stroke:rgb(34,34,33);stroke-width:0.5px;"/>
                    <path d="M88.26,330.264C87.86,316.819 87.557,303.836 89.838,290.472C91.067,283.27 92.942,276.08 95.831,269.352C98.045,264.197 100.424,259.049 103.855,254.61C107.285,250.171 111.885,246.445 117.304,244.995C122.591,243.581 126.672,244.996 131.335,247.283C135.402,249.278 139.363,250.324 141.289,255.026C142.849,258.836 142.486,262.71 144.346,266.395C149.599,276.801 150.274,287.132 151.837,298.592C153.684,312.128 155.604,325.655 157.595,339.174C161.379,364.86 165.432,390.513 169.737,416.128C166.876,416.77 163.981,417.274 161.054,417.582C155.967,418.118 150.858,417.984 145.786,417.433C140.829,394.141 135.536,370.912 129.89,347.757C127.065,336.173 124.697,324.843 121.778,313.848C119.795,331.812 118.084,349.805 116.885,367.83C116.274,377.019 115.795,386.215 115.484,395.417C115.226,403.045 113.695,411.336 114.029,418.807C108.197,419.771 101.233,418.891 95.257,418.494C94.571,418.448 89.462,417.82 89.404,417.222C87.841,401.083 87.901,388.11 87.539,371.162C87.268,358.42 88.633,342.756 88.26,330.264Z" style="fill:rgb(95,118,232);fill-rule:nonzero;stroke:black;stroke-width:0.5px;"/>
                    <g>
                        <clipPath id="_clip5">
                            <path d="M88.26,330.264C87.86,316.818 87.557,303.835 89.838,290.472C90.816,284.743 95.897,264.983 103.606,263.908C104.076,263.843 104.444,263.88 104.777,263.954C105.181,261.944 106.007,260.055 107.161,258.328C110.524,253.293 116.626,249.618 122.871,248.24C129.798,246.712 138.243,247.589 141.29,255.028C142.85,258.838 142.487,262.712 144.347,266.397C149.6,276.803 150.275,287.134 151.838,298.594C153.685,312.13 155.605,325.657 157.596,339.176C161.38,364.862 165.433,390.515 169.738,416.13C166.877,416.772 163.982,417.276 161.055,417.584C155.968,418.12 150.859,417.986 145.787,417.435C140.83,394.143 135.537,370.914 129.891,347.759C127.066,336.175 124.698,324.845 121.779,313.85C119.796,331.814 118.085,349.807 116.886,367.832C116.275,377.021 115.796,386.217 115.485,395.419C115.227,403.047 113.696,411.338 114.03,418.809C108.198,419.773 101.234,418.893 95.258,418.496C94.572,418.45 89.463,417.822 89.405,417.224C87.842,401.085 87.902,388.112 87.54,371.164C87.268,358.42 88.633,342.756 88.26,330.264Z"/>
                        </clipPath>
                        <g clip-path="url(#_clip5)">
                            <path d="M77.207,409.372C79.136,409.312 81.209,409.878 83.11,410.158C85.16,410.46 87.214,410.735 89.273,410.979C93.172,411.44 97.086,411.794 101.004,412.073C104.926,412.352 108.849,412.486 112.779,412.617C114.742,412.682 116.707,412.724 118.671,412.74C120.772,412.757 122.883,412.871 124.981,412.781C125.648,412.753 125.647,413.719 124.981,413.747C122.873,413.837 120.782,414.078 118.671,414.16C116.708,414.236 114.743,414.289 112.779,414.313C108.786,414.362 104.78,414.207 100.794,413.992C96.804,413.776 92.823,413.428 88.855,412.982C86.945,412.767 85.039,412.529 83.136,412.269C81.144,411.996 78.814,411.898 76.944,411.183C75.953,410.806 76.017,409.409 77.207,409.372Z" style="fill-rule:nonzero;"/>
                        </g>
                        <clipPath id="_clip6">
                            <path d="M88.26,330.264C87.86,316.818 87.557,303.835 89.838,290.472C90.816,284.743 95.897,264.983 103.606,263.908C104.076,263.843 104.444,263.88 104.777,263.954C105.181,261.944 106.007,260.055 107.161,258.328C110.524,253.293 116.626,249.618 122.871,248.24C129.798,246.712 138.243,247.589 141.29,255.028C142.85,258.838 142.487,262.712 144.347,266.397C149.6,276.803 150.275,287.134 151.838,298.594C153.685,312.13 155.605,325.657 157.596,339.176C161.38,364.862 165.433,390.515 169.738,416.13C166.877,416.772 163.982,417.276 161.055,417.584C155.968,418.12 150.859,417.986 145.787,417.435C140.83,394.143 135.537,370.914 129.891,347.759C127.066,336.175 124.698,324.845 121.779,313.85C119.796,331.814 118.085,349.807 116.886,367.832C116.275,377.021 115.796,386.217 115.485,395.419C115.227,403.047 113.696,411.338 114.03,418.809C108.198,419.773 101.234,418.893 95.258,418.496C94.572,418.45 89.463,417.822 89.405,417.224C87.842,401.085 87.902,388.112 87.54,371.164C87.268,358.42 88.633,342.756 88.26,330.264Z"/>
                        </clipPath>
                        <g clip-path="url(#_clip6)">
                            <path d="M73.344,405.694C75.431,405.416 77.773,406.046 79.851,406.29C81.946,406.536 84.045,406.751 86.146,406.95C90.35,407.347 94.561,407.663 98.781,407.865C107.356,408.275 115.946,408.157 124.527,408.193C125.071,408.195 125.036,408.898 124.527,408.959C115.918,409.982 107.232,410.012 98.57,409.692C94.283,409.534 89.996,409.283 85.726,408.895C83.625,408.704 81.527,408.483 79.432,408.239C77.412,408.003 74.989,408.005 73.134,407.186C72.492,406.901 72.605,405.792 73.344,405.694Z" style="fill-rule:nonzero;"/>
                        </g>
                        <clipPath id="_clip7">
                            <path d="M88.26,330.264C87.86,316.818 87.557,303.835 89.838,290.472C90.816,284.743 95.897,264.983 103.606,263.908C104.076,263.843 104.444,263.88 104.777,263.954C105.181,261.944 106.007,260.055 107.161,258.328C110.524,253.293 116.626,249.618 122.871,248.24C129.798,246.712 138.243,247.589 141.29,255.028C142.85,258.838 142.487,262.712 144.347,266.397C149.6,276.803 150.275,287.134 151.838,298.594C153.685,312.13 155.605,325.657 157.596,339.176C161.38,364.862 165.433,390.515 169.738,416.13C166.877,416.772 163.982,417.276 161.055,417.584C155.968,418.12 150.859,417.986 145.787,417.435C140.83,394.143 135.537,370.914 129.891,347.759C127.066,336.175 124.698,324.845 121.779,313.85C119.796,331.814 118.085,349.807 116.886,367.832C116.275,377.021 115.796,386.217 115.485,395.419C115.227,403.047 113.696,411.338 114.03,418.809C108.198,419.773 101.234,418.893 95.258,418.496C94.572,418.45 89.463,417.822 89.405,417.224C87.842,401.085 87.902,388.112 87.54,371.164C87.268,358.42 88.633,342.756 88.26,330.264Z"/>
                        </clipPath>
                        <g clip-path="url(#_clip7)">
                            <path d="M134.837,412.045C135.645,411.642 136.464,411.743 137.364,411.743C138.209,411.743 139.054,411.738 139.899,411.729C141.659,411.71 143.418,411.675 145.177,411.622C148.764,411.515 152.349,411.33 155.927,411.068C163.144,410.539 170.44,409.954 177.566,408.744C178.151,408.645 178.402,409.479 177.813,409.579C170.674,410.791 163.58,412.026 156.348,412.679C152.702,413.008 149.047,413.258 145.388,413.428C143.559,413.513 141.729,413.575 139.899,413.616C139.054,413.635 138.209,413.649 137.364,413.66C136.475,413.671 135.639,413.769 134.837,413.366C134.303,413.099 134.301,412.313 134.837,412.045Z" style="fill-rule:nonzero;"/>
                        </g>
                        <clipPath id="_clip8">
                            <path d="M88.26,330.264C87.86,316.818 87.557,303.835 89.838,290.472C90.816,284.743 95.897,264.983 103.606,263.908C104.076,263.843 104.444,263.88 104.777,263.954C105.181,261.944 106.007,260.055 107.161,258.328C110.524,253.293 116.626,249.618 122.871,248.24C129.798,246.712 138.243,247.589 141.29,255.028C142.85,258.838 142.487,262.712 144.347,266.397C149.6,276.803 150.275,287.134 151.838,298.594C153.685,312.13 155.605,325.657 157.596,339.176C161.38,364.862 165.433,390.515 169.738,416.13C166.877,416.772 163.982,417.276 161.055,417.584C155.968,418.12 150.859,417.986 145.787,417.435C140.83,394.143 135.537,370.914 129.891,347.759C127.066,336.175 124.698,324.845 121.779,313.85C119.796,331.814 118.085,349.807 116.886,367.832C116.275,377.021 115.796,386.217 115.485,395.419C115.227,403.047 113.696,411.338 114.03,418.809C108.198,419.773 101.234,418.893 95.258,418.496C94.572,418.45 89.463,417.822 89.405,417.224C87.842,401.085 87.902,388.112 87.54,371.164C87.268,358.42 88.633,342.756 88.26,330.264Z"/>
                        </clipPath>
                        <g clip-path="url(#_clip8)">
                            <path d="M136.314,406.522C137.844,406.197 139.649,406.526 141.215,406.573C142.898,406.623 144.581,406.652 146.265,406.659C149.63,406.672 152.998,406.607 156.36,406.459C159.72,406.311 163.074,406.063 166.423,405.786C168.026,405.654 169.623,405.478 171.224,405.332C173.058,405.165 174.897,405.107 176.714,404.817C177.299,404.724 177.55,405.558 176.961,405.652C175.237,405.927 173.556,406.354 171.84,406.67C170.197,406.973 168.526,407.177 166.867,407.391C163.517,407.823 160.153,408.123 156.779,408.339C153.418,408.554 150.053,408.68 146.685,408.708C145.002,408.722 143.318,408.714 141.635,408.684C140.723,408.668 139.812,408.645 138.901,408.616C138.046,408.589 137.129,408.643 136.313,408.385C135.401,408.098 135.256,406.746 136.314,406.522Z" style="fill-rule:nonzero;"/>
                        </g>
                    </g>
                    <path d="M110.442,446.033C110.436,446.069 110.43,446.105 110.424,446.142C110.376,446.427 110.301,446.743 110.045,446.907C109.865,447.022 109.635,447.034 109.417,447.043C100.895,447.388 92.497,447.711 83.97,447.935C82.041,447.986 73.903,448.001 73.368,445.43C73.242,444.823 73.588,444.199 74.087,443.792C74.585,443.385 75.217,443.153 75.837,442.932C79.684,441.562 84.056,440.748 87.723,439.041C89.08,438.409 90.371,437.512 91.741,436.844C92.474,436.486 95.485,434.312 96.158,434.45C100.356,435.317 105.137,435.957 109.411,435.292C110.673,438.725 111.03,442.445 110.442,446.033Z" style="fill:rgb(22,17,17);fill-rule:nonzero;"/>
                    <path d="M121.779,313.845C121.971,305.149 122.224,296.306 123.296,286.915" style="fill:none;fill-rule:nonzero;stroke:rgb(19,24,52);stroke-width:0.5px;"/>
                    <path d="M122.553,305.706C122.809,306.486 123.142,307.242 123.53,307.953C123.971,308.762 124.508,309.552 124.657,310.449C124.84,311.554 124.41,312.659 124.312,313.773C124.223,314.778 124.406,315.785 124.548,316.785C124.648,317.492 125.234,325.417 124.931,325.438C124.267,325.486 123.916,322.41 123.688,321.803C123.27,320.691 123.167,319.357 122.799,318.23C122.526,317.33 122.062,314.745 121.78,313.847C122.071,310.221 122.285,306.27 121.999,302.676C122.028,303.692 122.228,304.717 122.553,305.706Z" style="fill:rgb(22,17,17);fill-rule:nonzero;"/>
                </g>
                <path d="M138.569,179.957C138.284,179.171 137.698,178.526 137.133,177.91C135.566,176.203 132.845,174.468 130.445,174.674C129.558,174.75 128.716,175.077 127.869,175.353C126.732,175.724 125.566,176.008 124.386,176.201C122.953,176.436 121.434,176.561 120.232,177.375C117.902,178.954 117.758,182.323 116.176,184.651C114.559,187.03 111.44,188.299 110.447,190.999C110.038,192.112 110.049,193.351 109.592,194.444C109.175,195.443 108.4,196.246 107.859,197.184C106.506,199.532 106.845,202.734 108.659,204.748C110.243,206.505 112.706,207.272 115.071,207.268C117.437,207.264 119.744,206.576 121.986,205.82C122.407,205.678 122.837,205.528 123.179,205.245C123.939,204.616 124.072,203.525 124.469,202.621C124.991,201.434 126.001,200.539 126.717,199.458C127.579,198.157 128.022,196.52 129.128,195.387C130.195,194.294 132.096,194.096 133.413,193.278C135.092,192.235 137.09,191.349 138.189,189.714C139.956,187.083 139.725,183.142 138.569,179.957Z" style="fill-rule:nonzero;"/>
                <path d="M156.839,237.489C149.28,235.166 140.644,229.617 139.863,220.897C139.485,216.674 143.304,212.644 147.519,212.516C149.345,212.46 151.065,213.312 152.664,214.198C156.347,216.238 159.965,218.632 164.097,219.668C167.88,220.617 171.631,221.286 175.556,221.53C183.974,222.054 192.444,221.109 200.651,219.231C202.596,218.786 204.56,218.287 206.554,218.365C208.547,218.443 210.619,219.191 211.804,220.795C213.069,222.508 213.092,224.894 212.394,226.906C211.77,228.705 211.779,229.25 210.098,230.232C197.705,237.472 183.166,241.65 168.822,239.996C164.817,239.536 160.812,238.71 156.839,237.489Z" style="fill:white;fill-rule:nonzero;stroke:rgb(34,34,33);stroke-width:0.5px;"/>
                <path d="M130.836,204.22C130.801,204.337 130.794,204.462 130.805,204.584C130.882,204.563 130.961,204.548 131.04,204.533L130.836,204.22Z" style="fill:rgb(82,46,151);fill-rule:nonzero;"/>
                <g>
                    <path d="M155.541,107.873L143.988,90.394L130.887,91.801L117.217,100.837L110.789,112.338L122.342,129.817L155.541,107.873Z" style="fill:rgb(95,118,232);fill-rule:nonzero;stroke:black;stroke-width:0.5px;"/>
                    <path d="M120.255,126.659L126.683,115.158L140.353,106.122L153.454,104.715L236.378,230.171L203.18,252.115L120.255,126.659Z" style="fill:rgb(216,156,199);fill-rule:nonzero;stroke:black;stroke-width:0.5px;"/>
                    <path d="M227.098,237.358L131.184,92.25" style="fill:none;fill-rule:nonzero;stroke:black;stroke-width:0.5px;"/>
                    <path d="M213.428,246.394L117.514,101.286" style="fill:none;fill-rule:nonzero;stroke:black;stroke-width:0.5px;"/>
                    <path d="M247.58,284.618C247.586,283.211 236.217,229.927 236.217,229.927C236.217,229.927 200.315,251.319 203.018,251.871L247.58,284.618Z" style="fill:white;fill-rule:nonzero;stroke:black;stroke-width:0.5px;"/>
                    <path d="M234.02,274.653L247.58,284.618C247.582,284.136 246.249,277.567 244.496,269.139C240.528,270.048 236.855,271.764 234.02,274.653Z" style="fill-rule:nonzero;"/>
                    <path d="M240.487,265.447C238.65,260.622 237.516,255.53 237.132,250.381" style="fill:none;fill-rule:nonzero;stroke:black;stroke-width:0.5px;"/>
                    <path d="M235.632,245.288C235.277,243.339 234.923,241.39 234.568,239.441" style="fill:none;fill-rule:nonzero;stroke:black;stroke-width:0.5px;"/>
                    <path d="M124.685,127.656L139.788,150.505" style="fill:none;fill-rule:nonzero;stroke:black;stroke-width:0.5px;"/>
                    <path d="M143.006,155.374L148.436,163.59" style="fill:none;fill-rule:nonzero;stroke:black;stroke-width:0.5px;"/>
                </g>
                <path d="M95.643,254.828C97.997,255.628 100.333,256.381 102.743,257.013C108.019,258.396 113.33,259.318 118.689,260.294C122.42,260.974 126.123,261.798 129.864,262.429C135.806,263.432 142.571,264.287 148.423,262.506C147.969,253.274 147.336,245.005 146.883,235.773C147.171,236.094 151.344,237.737 152.981,238.464C153.337,238.622 153.747,238.436 153.861,238.064C155.099,234.042 160.878,214.945 159.284,214.108C158.445,213.668 157.634,213.165 156.821,212.682C150.973,209.21 144.53,206.666 137.849,205.163C131.745,203.79 124.623,202.163 118.367,202.415C106.497,202.894 104.451,212.754 102.454,222.226C101.736,225.631 101.034,229.038 100.34,232.448C99.359,237.269 98.396,242.093 97.433,246.917C97.32,247.488 96.534,252.562 95.643,254.828Z" style="fill:rgb(154,214,193);fill-rule:nonzero;stroke:black;stroke-width:0.5px;"/>
                <path d="M132.254,201.479C132.273,201.111 132.302,200.747 132.344,200.39C132.409,199.841 132.504,199.261 132.878,198.843C133.276,198.398 133.907,198.224 134.46,197.966C136.369,197.074 137.072,195.107 137.624,193.279C138.242,191.232 138.41,189.026 138.165,186.897C137.896,184.561 138.082,180.968 136.295,179.263C134.807,177.843 131.654,178.295 129.605,178.822C128.419,179.127 127.373,179.789 126.489,180.578C125.458,181.498 123.958,183.015 123.576,184.341C123.301,185.294 123.044,186.252 122.807,187.215C122.198,189.692 122.642,192.309 122.356,194.845C122.104,197.084 121.534,199.555 120.778,201.694C120.629,202.116 120.291,202.468 119.876,202.634C120.514,203.931 121.152,205.228 121.79,206.526C122.724,208.425 124.017,210.809 125.987,211.791C127.963,212.776 129.903,211.807 130.943,210.126C132.51,207.59 132.101,204.392 132.254,201.479Z" style="fill:white;fill-rule:nonzero;stroke:rgb(34,34,33);stroke-width:0.5px;"/>
                <path d="M137.624,175.423C137.04,175.305 136.434,175.266 135.838,175.248C133.716,175.183 131.59,175.348 129.503,175.733C127.789,176.049 125.846,175.988 124.307,176.898C123.61,177.31 122.737,178.013 122.365,178.747C121.981,179.506 121.623,180.215 121.055,180.875C119.99,182.112 118.899,183.117 118.967,184.932C119,185.808 119.335,186.578 119.886,187.281C120.519,188.087 121.593,189.049 122.619,189.275C123.343,189.434 123.482,188.975 123.881,188.477C124.295,187.961 124.855,187.708 125.509,187.657C126.118,187.61 126.82,187.584 127.196,187.103C127.399,186.844 127.458,186.502 127.498,186.175C127.727,184.314 128.616,183.269 130.701,183.285C131.734,183.293 132.748,183.576 133.78,183.626C134.619,183.667 135.457,183.553 136.288,183.43C137.311,183.278 138.364,183.1 139.236,182.545C140.355,181.833 141.055,180.508 141.015,179.182C140.975,177.856 140.199,176.577 139.042,175.927C138.601,175.68 138.121,175.523 137.624,175.423Z" style="fill-rule:nonzero;"/>
                <path d="M127.056,188.634C127.046,187.937 126.932,187.232 126.626,186.618C126.32,186.004 125.806,185.488 125.17,185.291C124.654,185.131 124.093,185.188 123.572,185.346C121.557,185.956 120.43,188.099 121.01,190.189C121.225,190.965 121.917,191.624 122.63,191.897C123.192,192.112 123.8,192.165 124.4,192.216" style="fill:white;fill-rule:nonzero;stroke:rgb(34,34,33);stroke-width:0.5px;"/>
                <path d="M136.28,191.34L130.675,192.024C130.985,193.242 134.826,195.906 136.28,191.34Z" style="fill:white;fill-rule:nonzero;stroke:rgb(34,34,33);stroke-width:0.5px;"/>
                <path d="M133.624,198.031C132.492,198.103 131.385,197.949 130.286,197.71C130.622,198.273 130.858,198.873 131.196,199.423C131.576,200.044 132.075,200.557 132.272,201.256C132.328,200.796 132.381,200.337 132.482,199.883C132.568,199.497 132.683,199.107 132.927,198.791C133.268,198.35 133.821,198.105 134.371,197.939C134.389,197.934 134.409,197.927 134.427,197.921C134.163,197.969 133.897,198.013 133.624,198.031Z" style="fill-rule:nonzero;"/>
                <path d="M105.571,219.84C106.079,217.221 107.468,214.796 109.718,213.213C115.321,209.271 119.036,211.82 123.918,214.919C126.362,216.47 128.91,218.062 131.797,218.489C135.138,218.983 138.531,217.822 141.264,215.989C145.208,213.344 148.341,209.41 151.428,205.917C154.624,202.3 157.82,198.683 161.017,195.066C163,192.822 164.663,190.646 167.074,188.834C169.046,187.352 171.433,185.955 173.874,185.442C175.617,185.075 178.377,184.929 179.502,186.646C180.612,188.34 179.72,190.981 178.592,192.423C177.429,193.909 175.786,194.928 174.201,195.952C172.603,196.984 170.833,198.178 169.782,199.806C168.501,201.788 167.745,204.354 166.811,206.52C163.004,215.354 158.533,223.702 151.371,230.269C148.351,233.038 144.951,235.497 141.071,236.817C133.562,239.371 125.318,237.381 117.782,234.906C114.2,233.73 110.491,232.338 108.01,229.5C105.717,226.876 104.919,223.199 105.571,219.84Z" style="fill:white;fill-rule:nonzero;stroke:rgb(34,34,33);stroke-width:0.5px;"/>
                <path d="M116.839,202.496C104.173,202.755 94.706,210.14 95.361,220.98C95.766,227.684 99.323,233.701 104.52,238.128C104.989,238.528 116.183,226.77 117.198,225.621C117.861,224.87 127.066,213.84 127.066,213.84C127.066,213.84 125.147,212.797 124.205,212.168C121.787,210.555 120.151,208.383 118.157,206.31" style="fill:rgb(154,214,193);fill-rule:nonzero;stroke:black;stroke-width:0.5px;"/>
                <path d="M124.146,186.929C124.664,187.101 125.216,187.297 125.532,187.724C125.913,188.24 125.834,188.927 125.739,189.543" style="fill:none;fill-rule:nonzero;stroke:rgb(34,34,33);stroke-width:0.5px;"/>
                <path d="M137.057,235.994C139.512,235.541 141.901,234.729 144.123,233.591" style="fill:none;fill-rule:nonzero;stroke:rgb(34,34,33);stroke-width:0.5px;"/>
                <path d="M145.18,232.724C146.304,232.199 147.36,231.527 148.31,230.73" style="fill:none;fill-rule:nonzero;stroke:rgb(34,34,33);stroke-width:0.5px;"/>
                <path d="M164.099,236.98C166.711,237.4 170.547,238.069 173.189,238.217" style="fill:none;fill-rule:nonzero;stroke:rgb(34,34,33);stroke-width:0.5px;"/>
                <path d="M166.553,235.995C167.426,236.177 168.317,236.275 169.209,236.286" style="fill:none;fill-rule:nonzero;stroke:rgb(34,34,33);stroke-width:0.5px;"/>
                <path d="M110.256,266.014C106.184,269.162 101.016,270.863 95.87,270.749" style="fill:none;fill-rule:nonzero;stroke:rgb(34,34,33);stroke-width:0.5px;"/>
                <path d="M139.701,267.621C141.882,271.208 145.732,273.73 149.892,274.296" style="fill:none;fill-rule:nonzero;stroke:rgb(34,34,33);stroke-width:0.5px;"/>
                <path d="M177.938,185.498C175.29,186.257 172.922,187.751 170.609,189.247" style="fill:none;fill-rule:nonzero;stroke:rgb(34,34,33);stroke-width:0.5px;"/>
                <path d="M171.94,190.821C174.498,189.616 176.974,188.236 179.344,186.693" style="fill:none;fill-rule:nonzero;stroke:rgb(34,34,33);stroke-width:0.5px;"/>
                <path d="M180.007,188.653C178.076,190.602 175.808,192.217 173.334,193.403" style="fill:none;fill-rule:nonzero;stroke:rgb(34,34,33);stroke-width:0.5px;"/>
                <path d="M116.285,259.657C114.35,259.317 112.389,259.141 110.47,258.709C108.674,258.305 106.979,257.648 105.133,257.493C104.177,257.413 103.234,257.285 102.462,256.809C101.738,257.598 101.003,258.38 100.295,259.182C99.651,259.911 99.737,260.826 100.506,261.5C101.092,262.013 101.935,262.172 102.699,262.027C103.464,261.881 104.154,261.459 104.73,260.934C105.248,260.461 105.793,259.858 106.493,259.906C107.362,259.966 107.802,260.959 108.484,261.502C109.007,261.919 109.731,262.071 110.377,261.899C111.007,261.732 111.541,261.286 112.181,261.162C113.836,260.841 115.212,262.741 116.897,262.702C117.666,262.684 118.378,262.247 118.896,261.678C119.245,261.294 119.509,260.846 119.756,260.389C118.599,260.146 117.452,259.862 116.285,259.657Z" style="fill:rgb(34,34,33);fill-rule:nonzero;"/>
            </g>
            <path d="M328.178,133.507L361.339,96.272" style="fill:none;fill-rule:nonzero;stroke:rgb(34,34,33);stroke-width:0.5px;"/>
            <path d="M179.968,133.507L212.023,85.6" style="fill:none;fill-rule:nonzero;stroke:rgb(34,34,33);stroke-width:0.5px;"/>
            <path d="M291.125,208.525L291.125,164.981" style="fill:none;fill-rule:nonzero;stroke:rgb(34,34,33);stroke-width:0.5px;"/>
            <path d="M247.633,287.137L238.222,364.351" style="fill:none;fill-rule:nonzero;stroke:rgb(34,34,33);stroke-width:0.5px;"/>
            <g>
                <rect x="180.949" y="316.54" width="74.379" height="68.06" style="fill:rgb(216,156,199);stroke:black;stroke-width:0.5px;"/>
                <rect x="174.194" y="323.657" width="74.379" height="68.06" style="fill:white;stroke:rgb(34,34,33);stroke-width:0.5px;"/>
                <rect x="182.749" y="332.616" width="32.835" height="12.233" style="fill:rgb(196,205,255);"/>
                <g>
                    <path d="M222.551,342.785L240.461,342.785" style="fill:none;fill-rule:nonzero;stroke:rgb(34,34,33);stroke-width:0.5px;"/>
                    <path d="M222.551,338.322L240.461,338.322" style="fill:none;fill-rule:nonzero;stroke:rgb(34,34,33);stroke-width:0.5px;"/>
                    <path d="M222.551,333.858L240.461,333.858" style="fill:none;fill-rule:nonzero;stroke:rgb(34,34,33);stroke-width:0.5px;"/>
                    <path d="M183.447,348.428L240.461,348.428" style="fill:none;fill-rule:nonzero;stroke:rgb(34,34,33);stroke-width:0.5px;"/>
                    <path d="M183.447,354.07L240.461,354.07" style="fill:none;fill-rule:nonzero;stroke:rgb(34,34,33);stroke-width:0.5px;"/>
                    <path d="M183.447,359.712L240.461,359.712" style="fill:none;fill-rule:nonzero;stroke:rgb(34,34,33);stroke-width:0.5px;"/>
                    <path d="M183.447,365.355L240.461,365.355" style="fill:none;fill-rule:nonzero;stroke:rgb(34,34,33);stroke-width:0.5px;"/>
                    <path d="M183.447,370.997L240.461,370.997" style="fill:none;fill-rule:nonzero;stroke:rgb(34,34,33);stroke-width:0.5px;"/>
                    <path d="M183.447,376.64L240.461,376.64" style="fill:none;fill-rule:nonzero;stroke:rgb(34,34,33);stroke-width:0.5px;"/>
                    <path d="M183.447,382.282L240.461,382.282" style="fill:none;fill-rule:nonzero;stroke:rgb(34,34,33);stroke-width:0.5px;"/>
                </g>
            </g>
            <circle cx="328.178" cy="133.507" r="2.755" style="fill:rgb(17,8,9);"/>
            <circle cx="179.968" cy="133.507" r="2.755" style="fill:rgb(17,8,9);"/>
            <circle cx="291.125" cy="208.525" r="2.755" style="fill:rgb(17,8,9);"/>
            <g>
                <g>
                    <rect x="203.412" y="53.396" width="56.741" height="35.712"/>
                    <rect x="196.907" y="48.214" width="56.741" height="35.712" style="fill:rgb(154,214,193);stroke:black;stroke-width:0.5px;"/>
                    <path d="M253.649,48.214C253.649,48.214 227.348,64.381 225.278,66.07L196.908,48.214" style="fill:none;fill-rule:nonzero;stroke:black;stroke-width:0.5px;"/>
                </g>
                <path d="M251.099,70.338C251.352,73.333 251.361,76.348 251.125,79.344" style="fill:none;fill-rule:nonzero;stroke:black;stroke-width:0.5px;"/>
                <path d="M251.006,68.559C251.047,67.453 251.089,66.347 251.13,65.241" style="fill:none;fill-rule:nonzero;stroke:black;stroke-width:0.5px;"/>
                <path d="M249.454,67.848L249.454,70.218" style="fill:none;fill-rule:nonzero;stroke:black;stroke-width:0.5px;"/>
                <path d="M226.226,63.226C226.226,63.226 230.22,60.704 231.559,59.789" style="fill:none;fill-rule:nonzero;stroke:black;stroke-width:0.5px;"/>
                <path d="M233.197,58.577C233.76,58.138 234.365,57.753 235,57.428" style="fill:none;fill-rule:nonzero;stroke:black;stroke-width:0.5px;"/>
            </g>
            <circle cx="247.828" cy="286.28" r="3.318" style="fill:rgb(17,8,9);"/>
            <g>
                <rect x="250.089" y="128.416" width="71.032" height="53.753" style="fill:white;stroke:rgb(34,34,33);stroke-width:0.5px;"/>
                <path d="M257.612,138.672L311.82,138.672" style="fill:none;fill-rule:nonzero;stroke:black;stroke-width:0.5px;"/>
                <path d="M257.612,145.637L311.82,145.637" style="fill:none;fill-rule:nonzero;stroke:black;stroke-width:0.5px;"/>
                <path d="M257.612,152.602L311.82,152.602" style="fill:none;fill-rule:nonzero;stroke:black;stroke-width:0.5px;"/>
                <path d="M257.612,159.567L311.82,159.567" style="fill:none;fill-rule:nonzero;stroke:black;stroke-width:0.5px;"/>
            </g>
            <g>
                <path d="M46.963,136.139L46.963,129.49C58.049,129.49 67.036,120.503 67.036,109.417L74.606,109.417C74.606,120.503 83.593,129.49 94.679,129.49L94.679,136.139C83.593,136.139 74.606,145.126 74.606,156.212L67.036,156.212C67.036,145.126 58.049,136.139 46.963,136.139Z" style="fill:rgb(212,113,114);fill-rule:nonzero;stroke:black;stroke-width:0.5px;"/>
                <path d="M51.122,134.053L51.122,131.576C61.228,131.576 69.421,123.383 69.421,113.277L72.22,113.277C72.22,123.384 80.413,131.576 90.519,131.576L90.519,134.054C80.413,134.054 72.22,142.247 72.22,152.353L69.421,152.353C69.422,142.246 61.229,134.053 51.122,134.053Z" style="fill:rgb(154,214,193);fill-rule:nonzero;stroke:black;stroke-width:0.5px;"/>
                <path d="M59.29,132.814C65.658,132.814 70.821,127.652 70.821,121.283C70.821,127.651 75.983,132.814 82.352,132.814C75.984,132.814 70.821,137.976 70.821,144.345C70.821,137.977 65.659,132.814 59.29,132.814Z" style="fill-rule:nonzero;"/>
            </g>
            <g>
                <g>
                    <rect x="350.884" y="55.814" width="20.91" height="22.702" style="fill:white;stroke:rgb(34,34,33);stroke-width:0.5px;"/>
                    <rect x="382.351" y="55.814" width="20.91" height="22.702" style="fill:rgb(216,156,199);stroke:black;stroke-width:0.5px;"/>
                    <rect x="413.818" y="55.814" width="20.91" height="22.702" style="fill:white;stroke:rgb(34,34,33);stroke-width:0.5px;"/>
                    <rect x="350.884" y="84.921" width="20.91" height="22.702" style="fill:white;stroke:rgb(34,34,33);stroke-width:0.5px;"/>
                    <rect x="382.351" y="84.921" width="20.91" height="22.702" style="fill:white;stroke:rgb(34,34,33);stroke-width:0.5px;"/>
                    <rect x="413.818" y="84.921" width="20.91" height="22.702" style="fill:rgb(216,156,199);stroke:black;stroke-width:0.5px;"/>
                </g>
                <path d="M354.25,64.768L362.62,71.385L375.077,49.975" style="fill:none;fill-rule:nonzero;stroke:black;stroke-width:4px;"/>
                <path d="M414.199,64.768L422.569,71.385L435.026,49.975" style="fill:none;fill-rule:nonzero;stroke:black;stroke-width:4px;"/>
                <path d="M384.225,94.353L392.594,100.971L405.051,79.561" style="fill:none;fill-rule:nonzero;stroke:black;stroke-width:4px;"/>
                <path d="M414.199,94.353L422.569,100.971L435.026,79.561" style="fill:none;fill-rule:nonzero;stroke:black;stroke-width:4px;"/>
            </g>
            <path d="M274.675,372.31C275.856,370.066 278.661,368.855 280.502,367.197C283.08,364.875 285.042,362.101 287.197,359.411C289.41,356.647 292.852,354.12 296.232,355.175C298.26,355.808 299.793,357.784 299.901,359.906C300.01,362.044 298.815,364.027 297.47,365.692C293.857,370.165 289.032,371.12 285.002,374.648C283.937,375.58 283.14,376.814 281.966,377.605C278.962,379.627 274.106,378.665 274.139,374.498C274.146,373.66 274.343,372.941 274.675,372.31Z" style="fill:none;fill-rule:nonzero;stroke:black;stroke-width:0.5px;"/>
            <g>
                <g>
                    <path d="M278.482,446.672L281.787,446.672C281.446,443.288 280.489,439.997 279.537,436.729C277.246,428.868 276.503,420.059 272.378,412.82C271.245,410.831 269.959,408.925 268.477,407.129C265.615,403.661 261.728,401.178 257.431,399.82C253.153,398.468 247.337,399.497 243.179,401.036C239.192,402.511 235.545,405.511 234.424,409.568C234.104,410.727 233.998,411.958 234.25,413.132C234.873,416.032 237.597,418.123 240.484,418.932C243.371,419.741 246.435,419.513 249.431,419.335C253.106,419.117 257.056,418.952 260.188,421.146C265.336,424.751 268.755,430.097 271.929,435.365C273.541,438.042 275.369,440.666 276.873,443.397C277.319,444.205 277.762,445.901 278.482,446.672Z" style="fill:rgb(154,214,193);fill-rule:nonzero;stroke:black;stroke-width:0.5px;"/>
                    <path d="M318.246,409.011C317.453,408.181 316.471,407.491 315.352,407.235C313.106,406.721 310.882,408.006 308.935,409.237C302.119,413.547 295.413,416.743 290.975,423.811C287.507,429.333 284.879,435.557 283.359,441.877C283.095,442.974 282.93,444.063 282.773,445.17C282.685,445.788 282.522,446.335 282.445,446.903L284.244,446.903C284.217,446.903 285.18,444.482 285.301,444.261C285.807,443.337 286.438,442.514 287.034,441.65C288.176,439.995 289.255,438.252 290.544,436.684C292.16,434.718 294.228,433.126 296.541,432.066C299.063,430.911 301.822,430.397 304.542,429.848C305.934,429.567 307.323,429.274 308.712,428.981C311.228,428.451 313.655,427.849 315.674,426.185C317.544,424.644 319.105,422.7 320.023,420.446C321.562,416.668 321.065,411.959 318.246,409.011Z" style="fill:rgb(154,214,193);fill-rule:nonzero;stroke:black;stroke-width:0.5px;"/>
                    <path d="M306.605,382.641C303.73,380.094 299.274,380.408 295.691,381.793C288.909,384.414 283.919,390.008 279.709,395.725C274.945,402.195 273.506,408.866 274.634,416.905C275.183,420.819 276.007,424.687 276.867,428.543C277.657,432.087 278.155,435.773 279.073,439.245C279.546,441.031 279.905,442.848 280.145,444.68C280.314,445.969 280.301,446.6 280.931,446.902L282.386,446.902C282.35,443.703 283.973,437.55 284.243,435.79C284.8,432.154 285.434,428.521 286.359,424.963C287.673,419.914 289.556,414.961 292.33,410.525C294.824,406.537 299.709,403.796 303.055,400.351C305.411,397.926 307.66,395.243 308.658,392.012C309.656,388.783 309.135,384.883 306.605,382.641Z" style="fill:rgb(154,214,193);fill-rule:nonzero;stroke:black;stroke-width:0.5px;"/>
                    <path d="M279.71,446.556C278.624,441.99 273.103,423.823 271.35,419.982C267.735,412.06 259.867,410.089 251.448,409.901" style="fill:none;fill-rule:nonzero;stroke:rgb(34,34,33);stroke-width:0.5px;"/>
                    <path d="M283.402,446.787C285.709,438.653 289.687,432.435 294.915,428.75C300.297,424.957 306.376,422.953 311.345,418.404" style="fill:none;fill-rule:nonzero;stroke:rgb(34,34,33);stroke-width:0.5px;"/>
                    <path d="M293.408,393.587C278.707,406.346 281.369,429.031 281.348,446.902" style="fill:none;fill-rule:nonzero;stroke:rgb(34,34,33);stroke-width:0.5px;"/>
                    <path d="M237.644,414.744C238.98,415.965 240.637,416.83 242.402,417.228" style="fill:none;fill-rule:nonzero;stroke:rgb(34,34,33);stroke-width:0.5px;"/>
                    <path d="M244.559,417.515C245.841,417.413 247.123,417.311 248.405,417.208" style="fill:none;fill-rule:nonzero;stroke:rgb(34,34,33);stroke-width:0.5px;"/>
                    <path d="M307.099,386.922C307.386,388.63 307.214,390.412 306.606,392.033C306.303,392.842 305.895,393.606 305.475,394.361C303.98,397.051 301.826,398.774 299.622,400.898" style="fill:none;fill-rule:nonzero;stroke:rgb(34,34,33);stroke-width:0.5px;"/>
                    <path d="M297.429,402.553C296.579,403.445 295.729,404.338 294.879,405.23" style="fill:none;fill-rule:nonzero;stroke:rgb(34,34,33);stroke-width:0.5px;"/>
                    <path d="M303.934,414.742C302.021,415.474 300.207,416.465 298.557,417.679" style="fill:none;fill-rule:nonzero;stroke:rgb(34,34,33);stroke-width:0.5px;"/>
                    <path d="M297.631,420.444C296.964,421.008 296.298,421.572 295.631,422.136" style="fill:none;fill-rule:nonzero;stroke:rgb(34,34,33);stroke-width:0.5px;"/>
                </g>
            </g>
            <g>
                <path d="M344.707,437.336C344.572,437.631 342.284,440.236 342.01,440.461C341.703,440.713 341.294,440.811 340.91,440.895C337.585,441.622 334.063,440.285 330.736,440.696C333.453,430.471 336.024,406.821 338.871,396.661C339.623,393.978 339.22,403.527 340.877,401.147C342.534,398.767 345.015,396.733 347.806,396.122C350.597,395.511 353.617,396.613 354.532,399.03C355.15,400.661 354.783,402.588 354.351,404.407C351.714,415.492 349.566,426.694 344.707,437.336Z" style="fill:white;fill-rule:nonzero;stroke:rgb(34,34,33);stroke-width:0.5px;"/>
                <path d="M309.233,446.886L345.652,446.886C346.515,445.702 346.365,443.577 346.025,442.247C345.51,440.229 345.412,438.074 345.4,436.042C341.271,436.791 337.349,436.197 333.238,435.666C332.732,435.601 332.218,435.535 331.712,435.604C331.036,435.696 330.423,436.02 329.807,436.302C326.437,437.843 322.636,438.218 319.009,439.074C315.382,439.93 311.646,441.473 309.69,444.515C309.318,445.094 309.012,445.759 309.105,446.432C309.128,446.597 309.179,446.743 309.233,446.886Z" style="fill:rgb(22,17,17);fill-rule:nonzero;"/>
                <path d="M404.041,438.431C404.089,438.744 404.145,439.073 404.354,439.308C404.589,439.571 404.971,439.667 405.333,439.749C408.465,440.456 412.75,440.15 415.977,440.52C416.941,440.631 414.812,404.509 414.32,401.35C414.086,399.844 413.816,398.327 413.244,396.908C412.996,396.29 412.678,395.676 412.183,395.241C411.669,394.788 411.002,394.565 410.343,394.485C408.553,394.266 406.782,395.042 405.47,396.26C404.158,397.478 403.255,399.103 402.531,400.78C400.023,406.59 399.524,413.376 401.053,419.704C402.543,425.864 403.069,432.119 404.041,438.431Z" style="fill:white;fill-rule:nonzero;stroke:rgb(34,34,33);stroke-width:0.5px;"/>
                <path d="M419.446,335.66C419.059,327.739 418.599,319.823 418.066,311.91C416.991,295.947 416.714,274.571 399.657,266.856C394.548,264.545 388.862,263.878 383.268,263.488C381.176,263.342 379.057,263.232 376.994,263.608C364.371,265.906 362.414,280.152 358.658,290.052C353.124,304.635 349.473,319.863 346.407,335.132C344.076,346.74 342.144,358.426 339.747,370.021C337.376,381.491 334.514,392.927 331.729,404.348C331.281,406.185 329.797,411.27 329.865,413.16C330.207,422.649 340.577,424.06 347.889,424.491C357.044,425.032 357.658,418.809 360.977,409.748C367.52,391.886 368.613,370.861 373.799,353.248C378.127,338.549 380.863,323.476 384.797,308.496C385.279,306.66 385.722,304.233 387.137,302.962C390.367,331.844 388.433,360.969 391.11,389.848C392.147,401.034 393.023,412.042 395.769,423.016C396.878,427.448 408.154,425.252 411.483,424.884C416.021,424.382 420.777,422.455 420.853,417.182C421.243,390.002 420.773,362.81 419.446,335.66Z" style="fill:rgb(95,118,232);fill-rule:nonzero;stroke:black;stroke-width:0.5px;"/>
                <path d="M402.893,447.129C402.954,447.426 403.043,447.755 403.307,447.925C403.325,447.937 403.348,447.938 403.368,447.947L438.422,447.947C439.298,447.571 439.905,447.067 440.012,446.387C440.111,445.756 439.736,445.106 439.218,444.682C438.7,444.258 438.056,444.017 437.425,443.787C433.507,442.361 429.088,441.514 425.335,439.737C423.945,439.079 422.612,438.146 421.209,437.45C420.458,437.078 417.342,434.814 416.674,434.959C412.504,435.861 407.739,436.527 403.424,435.836C402.312,439.41 402.121,443.281 402.871,447.016C402.878,447.054 402.885,447.091 402.893,447.129Z" style="fill:rgb(22,17,17);fill-rule:nonzero;"/>
                <path d="M364.299,235.124C364.395,234.328 364.554,233.558 364.76,232.785C364.902,232.253 365.656,232.478 365.552,233.011C365.265,234.477 365.04,235.981 364.906,237.47C364.865,237.923 364.225,237.94 364.213,237.47C364.192,236.685 364.205,235.904 364.299,235.124Z" style="fill:rgb(22,17,17);fill-rule:nonzero;"/>
                <path d="M441.71,240.392C441.643,239.719 441.483,238.972 441.218,238.143C440.157,234.824 438.582,231.34 436.971,228.231C436.438,227.202 435.853,226.205 435.228,225.231C433.579,222.665 431.651,220.273 429.664,217.952C427.355,215.254 424.947,212.626 422.252,210.313C419.61,208.044 416.707,206.09 413.676,204.375C411.04,202.882 408.165,201.806 405.3,200.885C401.004,199.505 395.057,199.205 393.017,199.127C390.598,199.035 388.177,198.977 385.757,199.021C380.98,199.109 376.147,199.568 371.569,201.055C364.938,203.208 361.154,207.795 357.133,213.215C352.45,219.528 347.336,225.42 342.89,231.946C341.655,233.759 340.427,235.64 339.449,237.618C338.443,239.651 337.701,241.787 337.482,244.056C337.09,248.138 339.508,254.891 344.378,254.83C348.81,254.775 353.831,248.495 356.592,245.479C358.431,243.47 358.301,236.575 361.255,236.702C362.18,243.108 361.166,251.091 360.893,257.7C360.608,264.466 360.472,273.742 360.531,280.508C378.265,281.17 397.902,281.106 415.646,280.89C415.139,266.231 413.269,251.735 411.964,237.184C414.084,238.542 416.229,239.862 418.379,241.169C421.396,243.003 424.518,244.853 428,245.435C433.432,246.343 442.394,247.251 441.71,240.392Z" style="fill:rgb(154,214,193);fill-rule:nonzero;stroke:black;stroke-width:0.5px;"/>
                <path d="M347.811,233.627C355.237,228.96 363.41,225.631 371.534,222.326C374.143,221.265 376.773,220.197 379.539,219.666C380.172,219.544 380.852,219.456 381.441,219.718C383.091,220.451 382.615,222.911 381.781,224.512C377.859,232.036 372.012,238.361 366.05,244.398C362.8,247.689 359.259,250.934 355.153,253.129C351.74,254.953 344.059,257.378 340.905,253.748C340.146,252.875 338.306,250.642 338.052,249.514C336.172,241.159 340.883,237.981 347.811,233.627Z" style="fill:white;fill-rule:nonzero;stroke:rgb(34,34,33);stroke-width:0.5px;"/>
                <g transform="matrix(-1,-1.22465e-16,1.22465e-16,-1,769.174,446.179)">
                    <rect x="367.49" y="211.691" width="34.194" height="22.797" style="fill:rgb(17,8,9);"/>
                </g>
                <path d="M437.932,249.891C429.361,256.157 414.509,250.863 406.682,246.143C404.592,244.882 402.501,243.622 400.411,242.361C398.066,240.947 395.766,239.443 393.233,238.379C388.104,236.224 382.745,235.652 378.516,231.772C377.02,230.4 375.637,228.401 376.281,226.476C376.815,224.882 378.617,224 380.298,224.001C381.979,224.003 383.571,224.696 385.108,225.377C386.282,225.897 387.457,226.416 388.63,226.938C389.107,227.15 391.206,228.583 391.121,227.191C391.096,226.793 390.825,226.461 390.616,226.12C390.333,225.658 389.564,223.934 390.408,223.643C390.864,223.486 392.141,224.902 392.437,225.19C393.879,226.598 394.795,228.607 396.554,229.675C397.885,230.483 399.51,230.572 401.052,230.786C403.575,231.136 405.931,231.803 408.454,232.098C411.489,232.453 414.525,232.792 417.563,233.114C423.971,233.794 430.768,233.777 436.921,235.806C443.919,238.115 441.77,247.085 437.932,249.891Z" style="fill:white;fill-rule:nonzero;stroke:rgb(34,34,33);stroke-width:0.5px;"/>
                <path d="M387.029,303.991C386.879,299.748 386.73,295.504 386.581,291.261" style="fill:rgb(95,118,232);fill-rule:nonzero;stroke:black;stroke-width:0.5px;"/>
                <path d="M355.839,291.979C358.122,292.77 360.7,292.225 362.819,291.064C364.938,289.903 366.685,288.179 368.395,286.471" style="fill:none;fill-rule:nonzero;stroke:black;stroke-width:0.5px;"/>
                <path d="M407.876,287.228C408.764,288.966 410.483,290.17 412.327,290.806C414.172,291.443 416.15,291.571 418.101,291.613" style="fill:none;fill-rule:nonzero;stroke:black;stroke-width:0.5px;"/>
                <path d="M414.417,232.703C411.762,228.506 409.233,224.23 406.835,219.881" style="fill:none;fill-rule:nonzero;stroke:black;stroke-width:0.5px;"/>
                <path d="M341.417,249.326C341.486,250.452 341.988,251.547 342.798,252.334" style="fill:none;fill-rule:nonzero;stroke:black;stroke-width:0.5px;"/>
                <path d="M435.901,232.089C434.672,229.074 433.055,226.217 431.101,223.612" style="fill:none;fill-rule:nonzero;stroke:black;stroke-width:0.5px;"/>
                <path d="M426.964,218.296C427.633,218.824 428.21,219.47 428.659,220.195" style="fill:none;fill-rule:nonzero;stroke:black;stroke-width:0.5px;"/>
                <path d="M346.722,345.227C346.23,350.604 345.23,355.934 343.738,361.123" style="fill:none;fill-rule:nonzero;stroke:black;stroke-width:0.5px;"/>
                <path d="M343.16,364.903C342.782,366.921 342.403,368.938 342.025,370.956" style="fill:none;fill-rule:nonzero;stroke:black;stroke-width:0.5px;"/>
                <path d="M410.503,422.659C414.147,422.644 417.569,419.746 418.183,416.154" style="fill:none;fill-rule:nonzero;stroke:black;stroke-width:0.5px;"/>
                <path d="M411.318,258.212C411.415,261.429 411.511,264.645 411.608,267.862" style="fill:none;fill-rule:nonzero;stroke:black;stroke-width:0.5px;"/>
                <path d="M412.016,271.078C412.087,272.971 412.023,274.869 411.827,276.753" style="fill:none;fill-rule:nonzero;stroke:black;stroke-width:0.5px;"/>
                <path d="M436.304,248.501C438.328,247.286 439.567,244.872 439.374,242.519" style="fill:none;fill-rule:nonzero;stroke:black;stroke-width:0.5px;"/>
                <g id="XMLID_606_">
                    <path id="XMLID_610_" d="M397.764,182.477C396.786,181.652 395.528,181.255 394.397,180.655C391.978,179.371 390.184,177.175 388.598,174.941C387.637,173.588 386.61,172.108 385.028,171.604C383.571,171.14 381.232,171.228 380.043,172.218C379.141,172.969 378.405,173.996 378.141,175.152C377.863,176.369 378.177,177.709 378.232,178.94C378.297,180.406 378.296,181.874 378.227,183.34C378.144,185.107 377.964,186.879 378.115,188.642C378.266,190.405 378.779,192.192 379.922,193.543C380.928,194.731 382.405,195.517 383.956,195.649C386.087,195.83 388.114,194.834 390.116,194.084C391.146,193.698 392.2,193.374 393.214,192.946C394.169,192.543 394.931,191.992 395.928,191.651C397.95,190.959 400.213,190.305 400.281,187.797C400.332,185.918 399.186,183.677 397.764,182.477Z" style="fill:rgb(22,17,17);fill-rule:nonzero;"/>
                    <g id="XMLID_607_">
                        <path d="M394.12,194.779C394.045,192.766 394.128,190.742 394.101,188.718C394.086,187.641 394.072,186.565 394.057,185.488C394.441,184.128 394.939,182.678 395.013,181.396C395.119,179.556 395.107,177.467 393.744,176.05C392.505,174.763 391.128,170.541 389.428,170.153C388.406,169.919 386.254,169.881 385.255,169.614C384.138,169.317 383.043,172.405 381.902,172.291C381.699,172.271 381.495,172.253 381.291,172.239C380.965,172.216 380.608,172.21 380.357,172.415C380.193,172.548 380.1,172.753 380.021,172.953C379.411,174.49 379.293,176.2 379.182,177.878C378.922,181.818 378.13,189.381 382.63,191.348C382.66,191.361 382.692,191.368 382.722,191.38C382.662,191.356 382.561,194.76 382.558,194.937C382.526,196.712 382.32,199.108 380.479,199.965C382.339,201.899 385.204,202.624 387.876,202.38C390.448,202.145 393.209,201.141 395.384,199.754C393.991,199.06 394.167,196.051 394.12,194.779Z" style="fill:white;fill-rule:nonzero;stroke:rgb(34,34,33);stroke-width:0.5px;"/>
                        <path id="XMLID_611_" d="M381.463,168.419C382.611,168.226 383.775,168.083 384.865,167.678C385.946,167.276 386.954,166.618 388.101,166.491C389.014,166.39 389.929,166.64 390.791,166.956C392.193,167.47 393.554,168.187 394.571,169.281C396.931,171.82 397.061,175.928 399.596,178.292C400.737,179.356 401.354,180.236 402.016,181.642C402.723,183.143 403.467,184.639 403.909,186.245C404.461,188.251 404.494,190.511 403.431,192.3C402.096,194.546 399.196,195.581 396.626,195.112C395.749,194.952 394.88,194.628 394.213,194.036C393.374,193.29 392.933,192.194 392.65,191.107C392.336,189.902 392.181,188.655 392.19,187.409C392.198,186.29 392.395,185.258 392.869,184.245C393.424,183.059 392.618,182.948 392.014,181.96C391.649,181.363 391.786,180.61 391.197,180.113C390.663,179.662 390.412,179.509 390.117,178.9C389.844,178.336 389.509,177.957 388.984,177.571C387.444,176.437 385.399,176.333 383.487,176.309C381.575,176.285 379.547,176.266 377.925,175.253C377.079,174.725 376.372,173.893 376.222,172.908C376.035,171.681 376.756,170.449 377.76,169.718C378.764,168.987 380.007,168.673 381.23,168.459C381.307,168.446 381.385,168.432 381.463,168.419Z" style="fill:rgb(22,17,17);fill-rule:nonzero;"/>
                        <path id="XMLID_3_" d="M391.136,183.856C391.942,184.19 392.859,184.28 393.65,184.024C395.452,183.441 396.199,180.906 394.907,179.407C394.278,178.678 393.268,178.259 392.317,178.318C391.366,178.377 390.503,178.909 390.068,179.686" style="fill:white;fill-rule:nonzero;stroke:rgb(34,34,33);stroke-width:0.5px;"/>
                        <path d="M394.011,179.92C393.33,179.592 392.488,179.622 391.832,179.997C391.176,180.373 390.723,181.083 390.661,181.836" style="fill:white;fill-rule:nonzero;stroke:rgb(34,34,33);stroke-width:0.5px;"/>
                    </g>
                </g>
                <path d="M381.472,186.334C381.967,187.32 382.903,188.013 383.99,188.045C385.127,188.079 386.081,187.379 386.53,186.347C384.854,186.484 383.155,186.374 381.472,186.334Z" style="fill:rgb(196,99,69);fill-rule:nonzero;"/>
                <path d="M387.856,191.28C388.002,191.302 388.139,191.35 388.251,191.445C389.045,192.118 386.959,193.028 386.531,193.126C386.066,193.233 385.581,193.208 385.112,193.294C384.607,193.387 383.328,194.141 382.864,193.974C382.306,193.772 382.562,192.084 382.651,191.555C382.66,191.503 382.671,191.448 382.708,191.412C382.772,191.349 382.877,191.368 382.964,191.39C384.399,191.744 385.9,191.398 387.373,191.277C387.531,191.264 387.699,191.257 387.856,191.28Z" style="fill:rgb(22,17,17);fill-rule:nonzero;"/>
                <path d="M343.643,420.97C346.083,422.225 349.063,422.38 351.621,421.386" style="fill:none;fill-rule:nonzero;stroke:black;stroke-width:0.5px;"/>
                <path d="M354.146,419.444C354.978,418.578 355.647,417.556 356.108,416.447" style="fill:none;fill-rule:nonzero;stroke:black;stroke-width:0.5px;"/>
                <path d="M357.652,412.806C360.348,405.785 362.303,398.48 363.473,391.051" style="fill:none;fill-rule:nonzero;stroke:black;stroke-width:0.5px;"/>
                <path d="M358.408,403.12C358.044,404.636 357.511,406.112 356.821,407.51" style="fill:none;fill-rule:nonzero;stroke:black;stroke-width:0.5px;"/>
                <path d="M418.551,414.181C418.603,411.438 418.655,408.695 418.707,405.953" style="fill:none;fill-rule:nonzero;stroke:black;stroke-width:0.5px;"/>
                <path d="M401.098,349.195C401.86,347.248 403.158,345.772 405.265,345.607C407.038,345.468 408.685,346.755 409.483,348.345C410.281,349.935 410.394,351.773 410.408,353.552C410.418,354.794 410.384,356.056 410.009,357.24C409.067,360.207 404.348,364.087 401.428,360.949C400.763,360.235 400.51,359.235 400.36,358.271C400.017,356.059 399.96,352.102 401.098,349.195Z" style="fill:rgb(22,17,17);fill-rule:nonzero;"/>
                <path d="M351.927,351.674C352.31,350.605 352.966,349.659 353.615,348.728C354.485,347.48 355.377,346.209 356.601,345.307C357.825,344.405 359.463,343.921 360.894,344.437C363.065,345.22 363.909,347.901 363.788,350.206C363.575,354.258 360.726,359.649 356.404,360.643C351.612,361.744 350.68,355.16 351.927,351.674Z" style="fill:rgb(22,17,17);fill-rule:nonzero;"/>
            </g>
            <path d="M386.503,446.903C413.87,446.914 425.87,446.914 453.037,446.903" style="fill:none;fill-rule:nonzero;stroke:black;stroke-width:0.5px;"/>
            <path d="M61.581,446.903C167.871,446.914 265.871,446.914 371.498,446.903" style="fill:none;fill-rule:nonzero;stroke:black;stroke-width:0.5px;"/>
            <path d="M84.99,451.786L297.849,451.786" style="fill:none;fill-rule:nonzero;stroke:black;stroke-width:0.5px;"/>
            <path d="M344.865,451.786C365.159,452.054 384.159,452.054 404.161,451.786" style="fill:none;fill-rule:nonzero;stroke:black;stroke-width:0.5px;"/>
            <path d="M309.111,451.786L328.364,451.786" style="fill:none;fill-rule:nonzero;stroke:black;stroke-width:0.5px;"/>
            <path d="M275.567,354.711C275.567,356.61 274.028,358.149 272.129,358.149C270.23,358.149 268.691,356.61 268.691,354.711C268.691,352.812 270.23,351.273 272.129,351.273C274.028,351.273 275.567,352.812 275.567,354.711Z" style="fill-rule:nonzero;"/>
            <path d="M256.925,247.216L292.589,289.671" style="fill:none;fill-rule:nonzero;stroke:rgb(34,34,33);stroke-width:0.5px;"/>
            <g>
                <path d="M296.062,285.699L301.343,291.141" style="fill:none;fill-rule:nonzero;stroke:rgb(34,34,33);stroke-width:0.5px;"/>
                <path d="M305.989,289.31L301.484,281.568" style="fill:none;fill-rule:nonzero;stroke:rgb(34,34,33);stroke-width:0.5px;"/>
                <path d="M310.212,285.791L308.523,277.767" style="fill:none;fill-rule:nonzero;stroke:rgb(34,34,33);stroke-width:0.5px;"/>
                <path d="M314.436,277.063L314.858,285.228" style="fill:none;fill-rule:nonzero;stroke:rgb(34,34,33);stroke-width:0.5px;"/>
                <path d="M320.793,277.181L319.481,285.251" style="fill:none;fill-rule:nonzero;stroke:rgb(34,34,33);stroke-width:0.5px;"/>
                <path d="M327.528,278.893L324.713,287.058" style="fill:none;fill-rule:nonzero;stroke:rgb(34,34,33);stroke-width:0.5px;"/>
                <path d="M328.347,289.453L333.3,282.975" style="fill:none;fill-rule:nonzero;stroke:rgb(34,34,33);stroke-width:0.5px;"/>
                <path d="M331.726,292.645L337.357,286.826" style="fill:none;fill-rule:nonzero;stroke:rgb(34,34,33);stroke-width:0.5px;"/>
                <g>
                    <g>
                        <g>
                            <path d="M316.684,305.424C305.992,305.424 297.324,295.165 297.324,295.165C297.324,295.165 305.992,284.906 316.684,284.906C327.376,284.906 336.043,295.165 336.043,295.165C336.043,295.165 327.376,305.424 316.684,305.424Z" style="fill:rgb(216,156,199);fill-rule:nonzero;stroke:black;stroke-width:0.5px;"/>
                            <path d="M316.616,305.45C311.969,305.45 308.202,300.851 308.202,295.178C308.202,289.505 311.969,284.907 316.616,284.907C321.263,284.907 325.03,289.506 325.03,295.178C325.029,300.851 321.262,305.45 316.616,305.45Z" style="fill:rgb(154,214,193);fill-rule:nonzero;stroke:black;stroke-width:0.5px;"/>
                        </g>
                    </g>
                    <path d="M316.616,303.321C313.267,303.321 310.551,299.675 310.551,295.178C310.551,290.681 313.266,287.036 316.616,287.036C319.965,287.036 322.681,290.681 322.681,295.178C322.68,299.676 319.965,303.321 316.616,303.321Z" style="fill-rule:nonzero;"/>
                </g>
            </g>
            <circle cx="256.925" cy="247.216" r="3.46" style="fill:rgb(17,8,9);"/>
            <path d="M330.415,296.244C331.074,295.684 331.734,295.124 332.393,294.563" style="fill:none;fill-rule:nonzero;stroke:rgb(34,34,33);stroke-width:0.5px;"/>
            <g>
                <path d="M113.582,65.8C113.582,64.101 114.96,62.723 116.659,62.723C118.358,62.723 119.736,64.1 119.736,65.8" style="fill-rule:nonzero;"/>
                <path d="M127.462,77.431C129,75.604 131.042,74.285 132.856,72.731C134.67,71.177 136.339,69.225 136.692,66.862C137.045,64.499 135.587,61.756 133.218,61.45C131.845,61.272 130.487,61.915 129.387,62.756C125.888,65.432 124.303,70.019 120.903,72.82C118.631,74.691 116.05,76.124 115.842,79.414C115.739,81.042 116.506,82.784 117.962,83.52C122.336,85.73 125.235,80.077 127.462,77.431Z" style="fill:none;fill-rule:nonzero;stroke:black;stroke-width:0.5px;"/>
            </g>
        </g>
    </g>
</svg>
