<?xml version="1.0" encoding="UTF-8" standalone="no"?>
<!DOCTYPE svg PUBLIC "-//W3C//DTD SVG 1.1//EN" "http://www.w3.org/Graphics/SVG/1.1/DTD/svg11.dtd">
<svg width="100%" height="100%" viewBox="0 0 500 500" version="1.1" xmlns="http://www.w3.org/2000/svg" xmlns:xlink="http://www.w3.org/1999/xlink" xml:space="preserve" xmlns:serif="http://www.serif.com/" style="fill-rule:evenodd;clip-rule:evenodd;stroke-miterlimit:10;">
    <g id="OBJECTS">
        <g>
            <path d="M154.788,177.615C170.187,140.485 174.323,96.81 204.516,70.917C224.629,53.668 252.851,48.355 279.226,50.887C305.602,53.418 330.726,62.979 355.428,72.565C388.398,85.36 404.327,126.318 395.01,159.419C387.229,187.062 363.597,207.879 354.694,235.181C348.626,253.788 349.887,273.846 349.443,293.412C348.88,318.224 345.26,343.588 333.393,365.386C318.744,392.294 298.017,401.832 269.879,407.335C236.748,413.815 209.247,418.758 176.387,405.655C115.405,381.339 84.816,305.412 112.818,244.965C121.044,227.207 135.443,213.091 145.51,196.308C149.076,190.362 152.103,184.088 154.788,177.615Z" style="fill:rgb(237,240,255);fill-rule:nonzero;"/>
            <g>
                <path d="M55.159,445.213L241.772,445.213" style="fill:none;fill-rule:nonzero;stroke:rgb(34,34,33);stroke-width:0.5px;"/>
                <path d="M319.449,448.592L355.114,448.592" style="fill:none;fill-rule:nonzero;stroke:rgb(34,34,33);stroke-width:0.5px;"/>
                <path d="M308.187,435.453C350.015,435.055 393.015,435.055 435.31,435.453" style="fill:none;fill-rule:nonzero;stroke:rgb(34,34,33);stroke-width:0.5px;"/>
                <path d="M261.454,442.612C319.015,443.055 377.015,443.055 435.246,442.612" style="fill:none;fill-rule:nonzero;stroke:rgb(34,34,33);stroke-width:0.5px;"/>
                <path d="M356.312,438.964C375.857,438.943 395.401,438.908 414.946,438.858" style="fill:none;fill-rule:nonzero;stroke:rgb(34,34,33);stroke-width:0.5px;"/>
                <path d="M188.526,438.928C206.385,438.959 342.104,438.983 342.104,438.983" style="fill:none;fill-rule:nonzero;stroke:rgb(34,34,33);stroke-width:0.5px;"/>
                <path d="M324.815,271.607C345.858,283.758 373.407,283.705 394.403,271.472C401.963,267.067 408.878,260.942 412.278,252.88C413.474,250.044 414.231,246.991 415.263,244.091C416.037,241.916 416.966,239.827 418.35,237.98C421.885,233.264 427.88,230.85 431.329,226.071C435.531,220.248 435.001,212.149 432.449,205.437C429.897,198.726 425.603,192.828 422.499,186.353C414.784,170.262 422.303,153.675 414.165,137.043C405.326,118.977 389.034,104.964 372.001,94.85C324.3,66.525 264.093,60.233 211.566,78.082C191.426,84.926 168.582,99.028 146.703,98.091C129.511,97.355 111.308,95.031 103.602,116.058C97.045,133.948 112.182,144.316 121.353,156.847C131.651,170.919 127.621,189.381 124.677,205.171C121.387,222.813 124.209,241.759 139.324,253.429C148.485,260.502 160.14,263.382 171.51,265.546C187.272,268.546 202.463,265.378 216.031,256.722C219.82,254.305 223.418,251.473 226.093,247.861C230.63,241.734 232.146,233.887 232.646,226.28C233.875,207.609 229.407,176.483 237.009,162.123C240.782,154.995 233.462,153.772 238.875,147.793C243.336,142.866 249.854,140.132 256.445,139.277C266.099,138.024 276.201,140.65 284.022,146.446C300.6,158.73 300.448,177.86 296.185,196.245C293.111,209.503 288.433,223.683 293.636,236.259C299.502,250.437 311.576,263.962 324.815,271.607Z" style="fill:none;fill-rule:nonzero;stroke:rgb(34,34,33);stroke-width:0.5px;stroke-dasharray:4,4;"/>
                <g>
                    <rect x="236.028" y="89.42" width="91.644" height="66.891" style="fill:rgb(216,156,199);stroke:black;stroke-width:0.5px;"/>
                    <rect x="231.24" y="96.099" width="91.644" height="66.891"/>
                    <rect x="226.646" y="100.074" width="90.751" height="66.891" style="fill:white;stroke:rgb(34,34,33);stroke-width:0.5px;"/>
                    <g>
                        <path d="M288.59,100.165L288.59,167.192" style="fill:none;fill-rule:nonzero;stroke:rgb(34,34,33);stroke-width:0.5px;stroke-dasharray:4,4;"/>
                        <path d="M255.754,100.165L255.754,167.192" style="fill:none;fill-rule:nonzero;stroke:rgb(34,34,33);stroke-width:0.5px;stroke-dasharray:4,4;"/>
                        <path d="M226.318,133.467L317.054,133.467" style="fill:none;fill-rule:nonzero;stroke:rgb(34,34,33);stroke-width:0.5px;stroke-dasharray:4,4;"/>
                    </g>
                    <g>
                        <path d="M277.677,145.093L271.961,152.938L268.017,148.54C267.559,148.891 267.121,149.266 266.698,149.657L272.1,155.681L279.021,146.182C278.576,145.815 278.129,145.451 277.677,145.093Z" style="fill:rgb(168,220,164);fill-rule:nonzero;stroke:black;stroke-width:0.5px;"/>
                    </g>
                    <g>
                        <path d="M306.939,145.093L301.223,152.938L297.279,148.54C296.821,148.891 296.383,149.266 295.96,149.657L301.362,155.681L308.283,146.182C307.838,145.815 307.391,145.451 306.939,145.093Z" style="fill:rgb(168,220,164);fill-rule:nonzero;stroke:black;stroke-width:0.5px;"/>
                    </g>
                    <g>
                        <path d="M247.036,144.792L241.103,153.098L236.913,148.512C236.435,148.886 235.978,149.285 235.537,149.7L241.277,155.981L248.461,145.925C247.989,145.543 247.515,145.165 247.036,144.792Z" style="fill:rgb(168,220,164);fill-rule:nonzero;stroke:black;stroke-width:0.5px;"/>
                    </g>
                    <g>
                        <path d="M277.084,112.091L271.368,119.936L267.424,115.538C266.966,115.889 266.528,116.264 266.105,116.655L271.507,122.679L278.428,113.18C277.983,112.813 277.536,112.449 277.084,112.091Z" style="fill:rgb(168,220,164);fill-rule:nonzero;stroke:black;stroke-width:0.5px;"/>
                    </g>
                    <g>
                        <path d="M306.171,112.091L300.455,119.936L296.511,115.538C296.053,115.889 295.615,116.264 295.192,116.655L300.594,122.679L307.515,113.18C307.071,112.813 306.623,112.449 306.171,112.091Z" style="fill:rgb(168,220,164);fill-rule:nonzero;stroke:black;stroke-width:0.5px;"/>
                    </g>
                    <g>
                        <path d="M246.618,111.79L240.685,120.096L236.495,115.51C236.016,115.884 235.56,116.283 235.119,116.698L240.859,122.979L248.043,112.923C247.571,112.541 247.097,112.162 246.618,111.79Z" style="fill:rgb(168,220,164);fill-rule:nonzero;stroke:black;stroke-width:0.5px;"/>
                    </g>
                </g>
                <g>
                    <path d="M89.902,445.086L104.954,367.615L146.959,367.292L165.511,445.409" style="fill:none;fill-rule:nonzero;stroke:black;stroke-width:4px;"/>
                    <path d="M104.254,438.953L116.505,365.573L158.51,365.25L176.712,439.276" style="fill:none;fill-rule:nonzero;stroke:black;stroke-width:4px;"/>
                    <path d="M330.379,442.262L345.431,358.252L387.436,357.902L405.988,442.612" style="fill:none;fill-rule:nonzero;stroke:black;stroke-width:4px;"/>
                    <path d="M344.731,435.611L356.983,356.037L398.987,355.687L417.189,435.961" style="fill:none;fill-rule:nonzero;stroke:black;stroke-width:4px;"/>
                    <path d="M207.822,378.656C211.948,380.172 213.885,381.108 218.146,382.198C207.235,397.283 190.946,424.244 187.734,428.534C183.13,425.934 178.664,425.095 174.325,422.025C179.078,403.301 186.661,394.183 192.966,372.756C197.861,374.861 202.82,376.818 207.822,378.656Z" style="fill:white;fill-rule:nonzero;stroke:rgb(34,34,33);stroke-width:0.5px;"/>
                    <path d="M192.422,428.198C224.94,467.76 185.664,441.12 172.16,428.821C169.719,425.768 173.661,420.466 175.148,415.717C185.399,428.112 195.213,414.057 192.422,428.198Z" style="fill-rule:nonzero;"/>
                    <g>
                        <path d="M234.607,282.191L231.355,292.819C237.747,292.744 244.163,292.614 250.539,292.708C252.195,292.733 254.068,292.351 255.629,291.86C257.358,291.316 259,290.361 260.021,288.906C260.5,288.223 260.838,287.408 260.76,286.579C260.678,285.704 260.15,284.926 259.586,284.232C258.51,282.905 257.125,281.664 255.417,281.393C253.989,281.166 252.641,281.661 251.262,281.9C249.812,282.151 248.259,282.284 246.782,282.216C244.286,282.102 242.531,280.211 240.783,278.693C240.046,278.053 239.073,277.734 238.096,277.813" style="fill:white;fill-rule:nonzero;stroke:rgb(34,34,33);stroke-width:0.5px;"/>
                        <path d="M234.938,290.249L236.628,292.969C237.121,293.767 236.786,294.794 235.915,295.156C235.257,295.429 234.486,295.233 234.04,294.68L231.29,291.273" style="fill:white;fill-rule:nonzero;stroke:rgb(34,34,33);stroke-width:0.5px;"/>
                        <path d="M238.455,289.436L240.262,292.371C240.745,293.245 240.352,294.323 239.415,294.693C238.631,295.002 237.724,294.705 237.281,293.994L234.938,290.248" style="fill:white;fill-rule:nonzero;stroke:rgb(34,34,33);stroke-width:0.5px;"/>
                        <path d="M238.455,289.436L240.835,293.178C241.577,294.016 242.33,294.091 243.019,293.869L243.06,293.856C244.101,293.522 244.53,292.333 243.94,291.43C243.468,290.708 242.921,289.87 242.436,289.127C241.576,287.809 240.552,286.599 239.387,285.523C239.387,285.523 233.357,279.952 233.344,279.94C228.755,275.7 222.619,278.274 217.018,276.919C215.735,276.609 214.361,276.242 213.129,276.714C212.362,277.008 211.748,277.597 211.205,278.213C210.503,279.01 209.868,279.903 209.599,280.931C209.33,281.959 209.483,283.144 210.202,283.926C211.006,284.8 212.285,284.993 213.451,285.216C218.246,286.134 222.268,288.996 226.465,291.366C226.791,291.558 227.093,291.786 227.366,292.045L230.729,295.234C231.156,295.593 231.748,295.698 232.271,295.507C233.213,295.164 233.544,294.037 232.936,293.245L231.449,291.307" style="fill:white;fill-rule:nonzero;stroke:rgb(34,34,33);stroke-width:0.5px;"/>
                        <path d="M238.097,277.813C234.9,278.045 231.859,278.823 228.611,278.714C228.197,278.7 227.769,278.68 227.382,278.817C226.994,278.954 226.652,279.294 226.66,279.696C226.706,281.97 233.735,281.656 235.282,281.78C235.677,281.812 235.815,282.003 236.209,282.041" style="fill:white;fill-rule:nonzero;stroke:rgb(34,34,33);stroke-width:0.5px;"/>
                        <path d="M229.612,291.508C230.059,290.881 230.75,289.797 230.196,289.026C229.616,288.22 228.426,288.16 227.588,288.592C228.425,286.739 226.568,284.966 224.669,285.939C225.252,285.641 224.716,284.544 224.394,284.263C223.61,283.579 223.035,283.942 222.338,284.343C222.331,283.864 222.031,283.408 221.581,283.199C220.606,282.749 219.583,283.62 218.967,284.242C218.266,284.949 216.901,285.7 216.736,286.76C216.498,288.285 218.144,288.533 219.313,288.559C219.048,289.562 220.008,290.693 221.075,290.635C221.2,290.628 221.337,290.611 221.442,290.68C221.527,290.736 221.568,290.836 221.608,290.928C222.101,292.04 223.395,292.77 224.625,292.629C225.863,295 228.683,292.811 229.612,291.508Z" style="fill:white;fill-rule:nonzero;stroke:rgb(34,34,33);stroke-width:0.5px;"/>
                        <path d="M227.758,288.347C227.495,288.514 227.297,288.759 227.104,288.999C226.182,290.146 225.261,291.293 224.339,292.44" style="fill:none;fill-rule:nonzero;stroke:rgb(34,34,33);stroke-width:0.5px;"/>
                        <path d="M221.424,290.435C222.799,288.992 224.005,287.398 225.015,285.692" style="fill:none;fill-rule:nonzero;stroke:rgb(34,34,33);stroke-width:0.5px;"/>
                        <path d="M222.337,284.343C221.419,285.549 220.23,287.354 219.312,288.56" style="fill:none;fill-rule:nonzero;stroke:rgb(34,34,33);stroke-width:0.5px;"/>
                    </g>
                    <path d="M253.084,276.348C253.068,275.964 253.052,275.581 253.038,275.197C264.834,275.256 276.176,273.749 288.356,273.46C289.188,273.44 290.036,273.422 290.825,273.156C293.071,272.398 296.456,266.522 297.759,264.569C299.509,261.946 301.025,259.137 302.572,256.391C306.117,250.097 309.029,242.222 313.873,236.799C317.627,232.598 324.033,230.786 329.376,229.745C332.448,236.728 331.206,245.225 334.278,252.208C334.625,252.997 334.977,253.808 335.021,254.668C335.075,255.742 334.645,256.774 334.224,257.763C331.54,264.055 328.857,270.346 326.173,276.638C323.856,282.071 322.547,288.325 317.012,291.348C314.521,292.708 311.738,293.429 308.969,294.049C299.936,296.074 290.709,297.163 281.464,297.543C276.832,297.733 272.193,297.745 267.559,297.609C266.478,297.577 255.034,297.357 254.983,297.003C254.012,290.155 253.378,283.259 253.084,276.348Z" style="fill:rgb(95,118,232);fill-rule:nonzero;stroke:black;stroke-width:0.5px;"/>
                    <path d="M209.373,388.318C212.926,385.728 214.779,384.638 218.052,381.699C224.538,399.15 237.914,427.669 239.698,432.722C234.979,435.107 231.801,438.355 226.839,440.259C213.907,425.908 210.535,414.539 196.217,397.396C200.684,394.494 205.066,391.457 209.373,388.318Z" style="fill:white;fill-rule:nonzero;stroke:rgb(34,34,33);stroke-width:0.5px;"/>
                    <path d="M183.713,331.182C182.062,330.351 180.344,329.686 178.58,329.243C168.897,326.812 158.513,327.215 149.265,323.457C136.273,318.177 127.744,305.6 121.899,292.852C116.054,280.104 112.015,266.392 104.104,254.813C99.759,248.453 93.867,242.602 86.365,240.858C74.777,238.163 62.795,246.491 57.754,257.268C52.713,268.044 53.145,280.536 54.684,292.333C57.587,314.581 62.858,340.344 79.548,356.666C84.122,361.139 89.387,364.903 95.232,367.711C95.273,367.731 95.315,367.751 95.356,367.771C102.2,371.044 109.738,372.601 117.325,372.601L183.713,372.601L183.713,331.182Z" style="fill:rgb(216,156,199);fill-rule:nonzero;stroke:black;stroke-width:0.5px;"/>
                    <path d="M57.006,271.211C57.314,279.759 57.371,289.231 58.725,297.676" style="fill:rgb(216,156,199);fill-rule:nonzero;stroke:black;stroke-width:0.5px;"/>
                    <path d="M78.266,349.656C81.929,354.396 86.222,358.648 90.998,362.264" style="fill:rgb(216,156,199);fill-rule:nonzero;stroke:black;stroke-width:0.5px;"/>
                    <path d="M93.448,363.381C95.084,364.119 96.658,364.995 98.149,365.995" style="fill:rgb(216,156,199);fill-rule:nonzero;stroke:black;stroke-width:0.5px;"/>
                    <path d="M85.473,243.526C82.643,242.759 79.592,242.999 76.813,243.934C74.034,244.868 71.512,246.472 69.285,248.379" style="fill:rgb(216,156,199);fill-rule:nonzero;stroke:black;stroke-width:0.5px;"/>
                    <path d="M219.767,325.695C210.96,312.926 167.652,312.915 152.297,310.721C143.045,309.399 157.384,299.19 148.602,303.034C139.071,307.206 135.31,316.832 126.748,322.218C136.04,324.138 143.905,328.998 151.536,334.401C157.635,338.719 165.671,341.126 173.014,342.007C180.328,342.885 191.865,334.898 193.952,343.723C195.124,348.68 191.687,362.019 190.074,366.851C185.953,379.201 181.38,391.393 176.747,403.561C178.422,404.392 180.112,405.193 181.814,405.968C189.077,409.274 196.546,412.188 203.758,415.613C208.079,406.835 214.566,392.527 215.286,390.671C219.399,380.066 222.489,368.515 223.916,357.016C225.257,346.208 226.249,335.094 219.767,325.695Z" style="fill:rgb(95,118,232);fill-rule:nonzero;stroke:black;stroke-width:0.5px;"/>
                    <path d="M142.302,321.975C151.44,325.231 161.468,324.054 171.148,324.671C179.578,325.208 188.027,327.192 195.34,331.418C202.653,335.644 208.764,342.247 211.467,350.25C212.742,354.026 229.768,393.009 233.331,403.347C235.285,409.015 234.859,409.625 229.917,412.768C225.141,415.805 217.522,421.288 212.746,424.327C196.897,404.987 183.714,383.466 173.686,360.56C173.582,360.323 167.073,360.729 166.372,360.716C163.906,360.669 161.474,360.489 159.012,360.53C150.473,360.669 141.935,360.734 133.398,360.913C126.795,361.051 118.673,361.528 112.771,358.003C112.192,357.657 111.639,357.268 111.135,356.819C109.222,355.116 108.092,352.711 107.191,350.313C104.607,343.438 103.543,336.018 103.975,328.688C104.36,322.173 105.927,315.729 108.66,309.801C109.323,308.363 110.068,306.931 111.175,305.797C112.718,304.216 114.833,303.345 116.908,302.588" style="fill:rgb(95,118,232);fill-rule:nonzero;stroke:black;stroke-width:0.5px;"/>
                    <path d="M102.989,324.435C103.075,324.833 103.455,325.091 103.856,325.02C108.34,324.221 132.723,320.435 135.519,320.335C142.03,320.102 148.482,318.711 154.643,316.629C158.515,315.321 166.872,313.673 167.183,308.83C167.459,304.521 167.736,300.213 168.012,295.904C172.489,296.712 177.309,296.056 181.146,293.612C190.798,287.463 187.75,275.824 184.828,266.802C182.436,259.416 180.213,251.811 176.296,245.061C173.069,239.499 168.585,234.496 162.818,231.651C158.167,229.357 153.32,228.574 148.845,225.784C146.959,224.608 144.928,223.713 142.819,223.011C142.04,222.752 140.999,222.226 140.178,222.225C138.019,222.224 135.036,223.102 132.83,223.451C129.475,223.982 126.063,224.836 122.961,226.237C117.243,228.82 112.628,233.479 109.336,238.821C105.857,244.467 103.763,250.867 102.197,257.303C99.451,268.586 98.444,280.22 99.057,291.817C99.629,302.612 100.702,313.858 102.989,324.435Z" style="fill:rgb(149,207,182);fill-rule:nonzero;stroke:black;stroke-width:0.5px;"/>
                    <path d="M242.022,428.636C292.982,423.562 249.016,441.432 231.288,445.832C227.393,446.166 225.173,439.944 222.049,436.07C238.049,434.429 231.811,418.463 242.022,428.636Z" style="fill-rule:nonzero;"/>
                    <path d="M59.2,317.249C138.431,296.23 157.73,350.323 137.843,377.629" style="fill:none;fill-rule:nonzero;stroke:black;stroke-width:3px;"/>
                    <path d="M117.858,258.605C123.019,261.417 144.158,281.94 212.941,288.766C216.616,283.865 219.802,279.206 219.767,272.664C212.965,271.595 189.745,266.138 168.836,256.912C152.084,249.52 137.466,239.151 129.106,230.834" style="fill:rgb(149,207,182);fill-rule:nonzero;stroke:black;stroke-width:0.5px;"/>
                    <path d="M187.201,300.563L186.977,300.563" style="fill:none;fill-rule:nonzero;"/>
                    <g>
                        <path d="M192.519,306.866L123.681,306.866C122.839,306.866 122.156,306.183 122.156,305.341L122.156,305.123C122.156,304.281 122.839,303.598 123.681,303.598L192.519,303.598C193.361,303.598 194.044,304.281 194.044,305.123L194.044,305.341C194.044,306.184 193.361,306.866 192.519,306.866Z" style="fill-rule:nonzero;"/>
                        <path d="M194.268,306.866L132.837,306.866L138.182,271.566C138.367,270.341 139.408,269.426 140.617,269.426L197.179,269.426C198.639,269.426 199.738,270.742 199.514,272.223L194.268,306.866Z" style="fill-rule:nonzero;"/>
                        <g>
                            <path d="M171.572,287.062L174.236,289.278" style="fill:none;fill-rule:nonzero;stroke:rgb(107,167,179);stroke-width:1px;"/>
                            <path d="M168.07,287.062L170.734,289.278" style="fill:none;fill-rule:nonzero;stroke:rgb(19,24,52);stroke-width:0.5px;"/>
                            <path d="M164.568,287.062L167.232,289.278" style="fill:none;fill-rule:nonzero;stroke:rgb(107,167,179);stroke-width:1px;"/>
                        </g>
                    </g>
                    <path d="M430.441,319.673C426.2,332.389 419.741,343.99 409.32,352.642C404.818,356.38 401.018,358.294 395.473,359.788C388.773,361.594 381.809,362.019 374.903,362.248C364.829,362.582 354.743,362.555 344.67,362.169C338.429,361.93 331.314,361.089 327.718,355.983C321.461,347.098 327.809,336.122 336.624,332.922C345.105,329.844 354.118,328.389 362.138,324.065C378.932,315.008 383.344,294.561 387.745,277.616C390.946,265.289 392.992,251.737 401.874,241.886C413.045,229.495 430.69,231.93 438.109,246.861C447.751,266.282 436.835,300.5 430.441,319.673Z" style="fill:rgb(216,156,199);fill-rule:nonzero;stroke:black;stroke-width:0.5px;"/>
                    <path d="M427.714,315.874C424.875,328.793 418.073,340.813 408.46,349.899" style="fill:none;fill-rule:nonzero;stroke:black;stroke-width:0.5px;"/>
                    <path d="M404.102,352.479C402.189,353.444 400.174,354.206 398.101,354.746" style="fill:none;fill-rule:nonzero;stroke:black;stroke-width:0.5px;"/>
                    <path d="M437.361,264.262C437.718,269.655 437.383,275.094 436.365,280.402" style="fill:none;fill-rule:nonzero;stroke:black;stroke-width:0.5px;"/>
                    <path d="M416.123,237.08C414.149,236.793 412.128,237.378 410.382,238.343C408.637,239.308 407.124,240.637 405.627,241.954" style="fill:none;fill-rule:nonzero;stroke:black;stroke-width:0.5px;"/>
                    <path d="M278.769,351.058C274.151,358.183 269.912,365.67 264.936,372.903C263.471,375.032 260.466,378.606 261.968,381.329C263.276,383.7 268.203,385.687 271.463,385.305C272.142,385.225 272.748,385.043 273.235,384.74C274.777,383.779 275.797,382.195 276.898,380.749C280.95,375.426 286.566,371.543 292.146,367.853C294.257,366.457 296.388,365.064 298.461,363.601L299.986,354.691L278.769,351.058Z" style="fill:white;fill-rule:nonzero;stroke:rgb(34,34,33);stroke-width:0.5px;"/>
                    <path d="M268.222,380.027C266.96,379.218 265.646,378.117 265.662,376.634C265.669,376.033 265.904,375.46 266.003,374.867C266.102,374.274 266.025,373.581 265.551,373.211C265.297,373.012 264.965,372.938 264.642,372.928C263.008,372.88 261.747,374.287 260.163,374.327C258.522,374.368 256.461,373.434 254.868,372.968C252.089,372.156 239.323,366.041 238.363,371.613C237.692,375.506 246.641,381.231 249.088,382.974C252.287,385.253 255.665,387.239 259.217,388.914C261.389,389.938 266.238,393.668 268.592,392.365C269.089,392.09 269.441,391.618 269.778,391.161C270.865,389.685 271.907,388.161 273.045,386.725C273.79,385.785 274.799,384.957 275.295,383.858C273.082,382.491 270.585,381.512 268.353,380.111C268.309,380.082 268.266,380.055 268.222,380.027Z" style="fill-rule:nonzero;"/>
                    <path d="M398.112,300.722C390.3,307.18 374.644,303.856 365.474,302.33C344.234,298.795 319.031,279.403 304.127,302.943C296.44,315.084 274.246,348.884 269.756,356.324C271.091,358.695 273.222,360.589 275.325,362.275C278.105,364.503 280.943,366.691 283.795,368.825C286.341,370.73 289.042,372.366 291.99,373.566C292.564,373.8 293.147,374.02 293.736,374.224C293.799,374.237 293.856,374.247 293.922,374.261C294.636,374.408 295.377,374.097 295.758,373.476C296.738,371.877 297.672,370.248 298.566,368.591C305.651,355.458 317.138,343.422 323.777,330.067C331.949,313.625 349.36,337.7 354.111,344.299C363.108,353.753 422.582,359.667 398.112,300.722Z" style="fill:rgb(212,113,114);fill-rule:nonzero;stroke:black;stroke-width:0.5px;"/>
                    <path d="M325.873,433.168C323.902,435.301 319.267,436.999 316.231,436.47C311.395,435.627 312.426,430.182 312.376,426.454C312.236,416.019 313.018,405.572 314.713,395.274C316.015,387.368 319,378.079 329.227,379.54C332.678,380.033 335.814,382.553 336.839,385.885C337.45,387.871 337.332,390.001 337.126,392.068C336.345,399.906 335.004,399.106 332.567,406.521C331.345,410.241 327.188,431.745 325.873,433.168Z" style="fill:white;fill-rule:nonzero;stroke:rgb(34,34,33);stroke-width:0.5px;"/>
                    <path d="M366.084,343.897C363.689,341.317 354.367,331.479 351.867,328.998C346.961,324.13 341.307,318.816 334.643,316.514C323.018,312.499 316.225,322.586 314.168,332.478C311.226,346.627 304.714,399.564 302.574,411.629C302.509,411.997 302.443,412.366 302.377,412.734C313.694,416.184 323.754,416.391 335.587,416.628C337.702,416.67 338.883,397.623 339.593,392.222C340.571,384.778 341.212,377.294 342.236,369.855C342.416,368.545 344.412,357.027 345.054,351.782C345.231,350.339 346.478,349.268 347.931,349.313C351.201,349.415 354.466,349.428 357.719,349.605C361.904,349.832 366.093,349.975 370.284,350.032" style="fill:rgb(212,113,114);fill-rule:nonzero;stroke:black;stroke-width:0.5px;"/>
                    <path d="M291.275,443.734C293.815,440.192 300.536,436.347 302.428,435.339C306.991,432.909 308.103,431.867 310.34,427.017C310.68,426.28 311.101,425.469 311.875,425.226C312.732,424.958 313.655,425.543 314.133,426.303C314.611,427.063 314.774,427.971 315.055,428.824C315.194,429.246 315.384,429.683 315.754,429.928C316.183,430.212 316.742,430.169 317.254,430.115C320.85,429.736 324.447,429.357 328.043,428.979C328.534,432.053 328.957,435.464 327.222,438.049C326.419,439.246 325.227,440.127 323.993,440.87C322.147,441.981 320.158,442.836 318.156,443.633C312.407,445.92 306.48,447.76 300.446,449.13C298.484,449.575 296.432,449.971 294.478,449.492C289.747,448.334 289.576,446.102 291.275,443.734Z" style="fill-rule:nonzero;"/>
                    <path d="M304.236,308.543L384.485,308.543C386.106,308.543 388.014,308.866 389.584,308.512C391.464,308.088 392.983,306.596 394.975,306.543C395.654,306.525 396.322,306.689 396.991,306.808C400.158,307.373 403.498,306.925 406.404,305.546C407.168,305.183 407.912,304.747 408.586,304.23C409.529,303.506 410.334,302.624 410.866,301.566C411.721,299.866 411.794,297.887 411.738,295.985C411.212,278.018 402.723,259.226 390.947,245.771C385.652,239.721 379.339,234.577 372.345,230.664C367.988,228.226 362.945,227.856 358.036,227.905C352.883,227.957 347.724,228.009 342.583,228.405C337.835,228.771 333.587,227.483 329.376,229.746" style="fill:rgb(95,118,232);fill-rule:nonzero;stroke:black;stroke-width:0.5px;"/>
                    <path d="M322.475,255.327C321.11,263.916 320.662,265.774 320.49,274.468" style="fill:rgb(95,118,232);fill-rule:nonzero;stroke:black;stroke-width:0.5px;"/>
                    <path d="M329.074,223.7C330.15,224.843 330.21,227.167 329.765,228.564C329.622,229.013 329.36,229.47 329.014,229.781C330.447,230.866 332.012,231.771 333.744,232.292C335.894,232.939 338.26,232.983 340.451,232.513C343.616,231.835 347.186,230.69 349.369,228.263C347.8,228.201 345.809,226.645 344.951,225.308C344.01,223.843 343.69,222.064 343.591,220.326C343.152,212.656 345.087,202.623 337.233,197.983C335.499,196.959 333.651,196.042 331.696,195.526C329.622,194.977 328.285,194.989 326.357,195.851C324.591,196.641 323.115,196.575 321.621,197.994C319.09,200.399 318.578,203.609 318.93,206.94C319.373,211.126 320.086,215.992 322.482,219.559C323.248,220.7 324.288,221.699 325.573,222.188C326.71,222.622 328.2,222.772 329.074,223.7Z" style="fill:white;fill-rule:nonzero;stroke:rgb(34,34,33);stroke-width:0.5px;"/>
                    <path d="M321.97,203.302C322.613,202.78 323.25,202.248 323.994,201.891C324.672,201.565 326.064,201.28 326.716,201.83C327.246,202.277 327.024,202.725 327.073,203.329C327.218,205.131 328.404,205.853 330.083,204.8C330.916,204.278 331.884,203.6 332.789,203.984C334.117,204.548 333.488,205.933 333.815,206.947C334.265,208.346 335.339,209.963 336.259,211.103C337.536,212.686 339,214.531 340.809,215.543C346.42,218.683 345.34,209.823 346.467,207.227C346.789,206.485 347.202,205.759 347.282,204.954C347.464,203.12 345.962,201.714 344.491,200.484C344.255,200.287 344.02,200.094 343.793,199.905C343.584,199.731 343.371,199.542 343.278,199.287C343.028,198.598 344.202,197.103 344.251,196.202C344.336,194.633 343.322,192.877 342.175,191.885C340.588,190.513 338.258,190.06 336.273,190.739C335.407,191.035 334.473,191.531 333.635,191.163C332.413,190.627 332.656,189.138 331.624,188.368C330.707,187.683 329.322,187.525 328.362,188.209C327.918,188.525 327.571,188.97 327.099,189.242C326.04,189.852 324.713,189.434 323.492,189.498C322.16,189.567 320.875,190.269 320.098,191.353C319.503,192.182 319.183,193.226 318.406,193.887C317.568,194.6 316.388,194.713 315.377,195.147C312.761,196.27 311.606,199.849 312.982,202.342C314.358,204.835 317.89,205.79 320.389,204.426C320.956,204.117 321.465,203.712 321.97,203.302Z" style="fill-rule:nonzero;"/>
                    <path d="M332.638,209.113C332.873,208.465 333.156,207.82 333.606,207.297C335.232,205.404 338.461,206.06 339.816,207.913C340.46,208.794 340.801,209.925 340.687,211.095C340.566,212.337 339.819,213.53 338.695,214.072" style="fill:white;fill-rule:nonzero;stroke:rgb(34,34,33);stroke-width:0.5px;"/>
                    <path d="M359.203,308.816C349.406,309.486 338.605,310.207 329.378,306.971C331.234,304.441 333.266,301.832 335.852,300.001C338.42,298.182 341.09,298.074 344.149,298.358C345.486,298.482 346.828,298.555 348.171,298.576C355.238,298.69 362.326,297.391 368.893,294.777C375.542,292.13 382.845,290.498 390.009,289.959C394.319,289.635 398.723,289.801 402.95,290.748C406.607,291.567 410.423,293.466 412.078,297.022C412.921,298.833 413.063,300.858 412.739,302.812C412.547,303.969 411.696,307.474 410.125,307.474C409.289,307.994 408.301,308.201 407.337,308.399C399.668,309.974 391.384,308.736 383.557,308.476C375.417,308.206 367.328,308.261 359.203,308.816Z" style="fill:white;fill-rule:nonzero;stroke:rgb(34,34,33);stroke-width:0.5px;"/>
                    <path d="M324.382,217.299C325.674,217.196 326.926,216.644 327.873,215.759" style="fill:none;fill-rule:nonzero;stroke:black;stroke-width:1px;"/>
                    <g>
                        <g>
                            <clipPath id="_clip1">
                                <path d="M337.233,197.983C349.433,205.19 337.956,223.462 348.129,228.749C342.225,230.792 335.756,231.173 329.653,229.838C329.914,229.895 329.851,225.937 329.832,225.673C329.631,222.931 327.646,222.978 325.575,222.189C324.29,221.7 323.25,220.7 322.483,219.559C320.087,215.991 319.375,211.126 318.932,206.94C318.579,203.608 319.092,200.399 321.623,197.994C323.116,196.575 324.592,196.641 326.359,195.851C328.286,194.989 329.623,194.977 331.697,195.526C333.65,196.042 335.498,196.958 337.233,197.983Z"/>
                            </clipPath>
                            <g clip-path="url(#_clip1)">
                                <path d="M327.844,223.321C327.824,223.257 327.809,223.186 327.788,223.124C329.747,222.944 331.84,222.496 333.466,221.514C332.711,222.955 330.427,225.119 328.688,226.723C328.668,226.289 328.544,224.365 327.844,223.321Z" style="fill-rule:nonzero;"/>
                            </g>
                        </g>
                    </g>
                    <path d="M339.133,209.818C338.441,208.45 336.681,207.732 335.23,208.224C334.631,208.427 334.058,208.867 333.93,209.486" style="fill:none;fill-rule:nonzero;stroke:black;stroke-width:0.5px;"/>
                    <path d="M336.059,208.173C337.04,208.606 337.536,209.895 337.097,210.873" style="fill:none;fill-rule:nonzero;stroke:black;stroke-width:0.5px;"/>
                    <path d="M436.267,301.061C393.154,282.584 338.098,322.83 360.807,364.118" style="fill:none;fill-rule:nonzero;stroke:black;stroke-width:3px;"/>
                    <rect x="75.614" y="306.703" width="346.276" height="3.067" style="fill:white;stroke:rgb(34,34,33);stroke-width:0.5px;"/>
                    <g>
                        <path d="M283.021,306.677L354.661,306.677C355.603,306.677 356.367,305.913 356.367,304.971C356.367,304.029 355.603,303.265 354.661,303.265L283.021,303.265C282.079,303.265 281.315,304.029 281.315,304.971C281.315,305.913 282.079,306.677 283.021,306.677Z" style="fill-rule:nonzero;"/>
                        <path d="M281.081,306.677L345.216,306.677L339.635,269.823C339.441,268.544 338.355,267.589 337.093,267.589L278.041,267.589C276.517,267.589 275.369,268.963 275.603,270.509L281.081,306.677Z" style="fill-rule:nonzero;"/>
                        <path d="M304.228,284.502C304.228,286.198 305.603,287.572 307.298,287.572C308.994,287.572 310.368,286.197 310.368,284.502C310.368,282.807 308.993,281.432 307.298,281.432C305.603,281.432 304.228,282.807 304.228,284.502Z" style="fill:rgb(34,34,33);fill-rule:nonzero;stroke:white;stroke-width:0.5px;"/>
                    </g>
                    <path d="M154.03,222.91C153.281,223.705 153.043,225.093 153.014,226.14C152.998,226.729 153.048,227.376 153.329,227.906C153.591,228.4 154.274,228.976 154.86,228.889C152.763,231.286 149.322,232.234 146.166,231.804C143.01,231.374 140.127,229.718 137.716,227.637C137.09,227.097 136.486,226.522 135.994,225.857C135.361,225.002 134.928,224.02 134.5,223.046C134.622,223.324 136.12,223.26 136.411,223.178C137.069,222.994 137.469,222.517 137.834,221.97C138.576,220.858 138.91,219.529 139.178,218.219C140.675,210.896 138.069,201.8 145.87,197.192C147.604,196.168 149.452,195.251 151.407,194.735C153.481,194.186 154.818,194.199 156.745,195.06C158.511,195.85 159.987,195.784 161.48,197.203C164.011,199.608 164.524,202.818 164.171,206.149C163.728,210.335 163.015,215.201 160.62,218.768C159.854,219.909 158.814,220.908 157.529,221.398C156.394,221.832 154.904,221.982 154.03,222.91Z" style="fill:white;fill-rule:nonzero;stroke:rgb(34,34,33);stroke-width:0.5px;"/>
                    <path d="M146.845,210.313C145.732,211.692 144.61,213.126 143.171,214.183C142.243,214.865 140.286,216.107 139.141,215.249C138.233,214.569 138.6,211.206 138.563,210.181C138.488,208.069 138.539,205.95 138.796,203.852C139.017,202.054 139.395,200.256 140.168,198.618C140.942,196.98 142.139,195.503 143.723,194.625C145.227,193.791 146.755,193.742 148.413,193.565C150.499,193.342 152.598,193.174 154.696,193.281C157.173,193.408 159.658,193.914 162.114,193.567C163.346,193.393 164.55,193.006 165.793,192.954C167.036,192.902 168.396,193.263 169.123,194.272C169.907,195.36 169.743,196.854 169.414,198.154C169.106,199.373 168.675,200.578 167.956,201.61C167.305,202.544 165.985,203.83 164.83,204.116C163.673,204.403 161.889,203.404 160.768,203.046C160.092,202.83 159.567,202.289 158.851,202.158C158.288,202.055 157.701,202.228 157.212,202.525C155.678,203.455 155.029,205.269 153.02,204.01C152.187,203.488 151.22,202.81 150.314,203.195C148.986,203.759 149.615,205.144 149.289,206.158C148.839,207.556 147.764,209.173 146.845,210.313Z" style="fill-rule:nonzero;"/>
                    <path d="M150.465,208.323C150.23,207.675 149.947,207.03 149.497,206.507C147.871,204.614 144.641,205.27 143.287,207.123C142.643,208.004 142.302,209.135 142.416,210.305C142.626,212.465 144.777,214.16 146.925,213.388C147.259,213.268 147.601,213.06 147.705,212.72" style="fill:white;fill-rule:nonzero;stroke:rgb(34,34,33);stroke-width:0.5px;"/>
                    <path d="M158.721,216.509C157.429,216.406 156.177,215.854 155.23,214.969" style="fill:none;fill-rule:nonzero;stroke:black;stroke-width:1px;"/>
                    <g>
                        <g>
                            <clipPath id="_clip2">
                                <path d="M145.871,197.193C133.671,204.4 145.148,222.672 134.975,227.959C140.879,230.002 147.348,230.383 153.451,229.048C153.19,229.105 153.253,225.146 153.272,224.883C153.472,222.141 155.458,222.188 157.529,221.399C158.814,220.91 159.854,219.91 160.621,218.769C163.017,215.201 163.729,210.336 164.172,206.15C164.525,202.818 164.012,199.609 161.481,197.204C159.988,195.785 158.512,195.851 156.746,195.061C154.819,194.199 153.481,194.187 151.408,194.735C149.453,195.252 147.605,196.168 145.871,197.193Z"/>
                            </clipPath>
                            <g clip-path="url(#_clip2)">
                                <path d="M155.26,222.531C155.28,222.467 155.295,222.396 155.316,222.334C153.357,222.154 151.264,221.706 149.638,220.724C150.393,222.165 152.677,224.329 154.416,225.933C154.435,225.499 154.56,223.575 155.26,222.531Z" style="fill-rule:nonzero;"/>
                            </g>
                        </g>
                    </g>
                    <path d="M145.605,207.398C146.349,207.261 147.155,207.524 147.676,208.072C148.197,208.621 148.417,209.439 148.242,210.175" style="fill:none;fill-rule:nonzero;stroke:black;stroke-width:0.5px;"/>
                    <path d="M368.266,256.845C377.754,267.073 382.057,277.087 386.911,290.166" style="fill:rgb(95,118,232);fill-rule:nonzero;stroke:black;stroke-width:0.5px;"/>
                    <path d="M165.407,245.753C166.813,249.264 167.706,252.979 168.05,256.746" style="fill:rgb(149,207,182);fill-rule:nonzero;stroke:black;stroke-width:0.5px;"/>
                    <path d="M202.365,340.613C204.571,342.749 206.394,345.28 207.719,348.05" style="fill:rgb(95,118,232);fill-rule:nonzero;stroke:black;stroke-width:0.5px;"/>
                    <path d="M208.75,351.266C209.532,352.681 210.237,354.139 210.862,355.63" style="fill:rgb(95,118,232);fill-rule:nonzero;stroke:black;stroke-width:0.5px;"/>
                    <path d="M222.965,338.878C223.017,342.21 222.972,345.544 222.831,348.874" style="fill:rgb(95,118,232);fill-rule:nonzero;stroke:black;stroke-width:0.5px;"/>
                    <path d="M173.643,360.328C174.512,359.812 175.431,359.381 176.382,359.042" style="fill:rgb(95,118,232);fill-rule:nonzero;stroke:black;stroke-width:0.5px;"/>
                    <path d="M112.939,350.803C113.496,352.185 114.293,353.494 115.417,354.472C116.541,355.45 118.014,356.073 119.502,355.996" style="fill:rgb(95,118,232);fill-rule:nonzero;stroke:black;stroke-width:0.5px;"/>
                    <path d="M121.89,356.61C122.903,356.838 123.956,356.889 124.986,356.758" style="fill:rgb(95,118,232);fill-rule:nonzero;stroke:black;stroke-width:0.5px;"/>
                    <path d="M104.57,262.997C103.898,266.911 103.43,270.86 103.168,274.823" style="fill:white;fill-rule:nonzero;stroke:rgb(34,34,33);stroke-width:0.5px;"/>
                    <path d="M103.024,278.905C103.071,279.89 103.118,280.876 103.165,281.861" style="fill:white;fill-rule:nonzero;stroke:rgb(34,34,33);stroke-width:0.5px;"/>
                    <path d="M127.144,264.827C124.466,263.177 121.273,261.087 118.822,259.135L118.24,258.767C119.004,260.223 119.201,261.908 119.796,263.44C120.391,264.973 121.62,266.476 123.263,266.554C124.691,266.622 125.812,266.679 126.952,267.716C127.48,268.196 127.924,268.771 128.499,269.195C129.321,269.8 130.461,270.072 131.467,269.861C132.472,269.65 133.076,268.414 134.184,268.676C131.25,267.44 129.834,266.485 127.144,264.827Z" style="fill-rule:nonzero;"/>
                    <path d="M375.512,269.843C376.008,270.389 376.639,270.821 377.032,271.446C377.516,272.214 377.577,273.177 377.481,274.08C377.364,275.177 377.101,276.47 377.898,277.233C378.661,277.964 380.064,277.796 380.669,278.662C381.064,279.228 380.954,280.042 381.372,280.591C381.837,281.201 382.729,281.228 383.495,281.199C383.203,280.403 382.838,279.637 382.474,278.871C381.535,276.901 380.61,274.923 379.657,272.959C379.346,272.318 379.135,271.572 378.783,270.96C378.367,270.237 377.785,269.696 377.417,268.914C376.808,267.622 376.128,266.328 375.088,265.349C375.03,265.295 374.958,265.238 374.881,265.256C374.815,265.271 374.775,265.336 374.742,265.394C373.914,266.861 374.394,268.614 375.512,269.843Z" style="fill-rule:nonzero;"/>
                    <path d="M280.803,368.925C281.438,369.676 281.547,370.723 281.857,371.656C282.167,372.59 282.908,373.562 283.889,373.485C284.429,373.443 284.887,373.088 285.309,372.748C286.084,372.123 286.859,371.498 287.634,370.873C286.263,370.488 285.076,369.643 283.919,368.813C282.906,368.086 281.951,367.277 280.946,366.539C279.76,365.668 278.702,364.443 277.539,363.676C277.695,365.235 277.314,365.956 278.499,367.118C279.186,367.79 280.185,368.193 280.803,368.925Z" style="fill-rule:nonzero;"/>
                    <path d="M299.161,434.856C299.816,434.497 300.654,434.944 301.079,435.558C301.504,436.172 301.676,436.926 302.046,437.575C302.524,438.415 303.343,439.055 304.274,439.316C304.501,439.38 304.75,439.421 304.968,439.332C305.578,439.085 305.437,438.19 305.189,437.58C304.861,436.777 304.534,435.974 304.206,435.17C303.861,434.325 303.623,433.134 304.419,432.686C305.009,432.353 305.776,432.748 306.163,433.304C306.55,433.86 306.696,434.546 307,435.151C307.304,435.756 307.879,436.325 308.554,436.264C309.526,436.178 309.91,434.914 309.738,433.954C309.498,432.619 308.632,431.41 307.444,430.754" style="fill:none;fill-rule:nonzero;stroke:rgb(149,207,182);stroke-width:1px;"/>
                    <path d="M196.88,430.123C195.264,431.426 193.923,433.068 192.967,434.911C192.798,435.237 192.637,435.584 192.638,435.952C192.639,436.32 192.847,436.712 193.201,436.81C193.527,436.901 193.862,436.73 194.157,436.564C195.933,435.566 197.71,434.568 199.486,433.57C198.956,434.804 198.426,436.039 197.896,437.273C197.499,438.198 197.132,439.362 197.785,440.127C198.082,440.475 198.537,440.651 198.989,440.719C200.585,440.958 202.267,439.826 202.647,438.258" style="fill:none;fill-rule:nonzero;stroke:rgb(149,207,182);stroke-width:1px;"/>
                    <path d="M250.495,369.789C249.936,371.272 249.642,372.854 249.633,374.438C249.631,374.844 249.77,375.381 250.176,375.384C250.374,375.386 250.541,375.245 250.687,375.111C251.965,373.933 253.137,372.64 254.182,371.251C254.674,371.821 254.727,372.642 254.694,373.395C254.662,374.147 254.574,374.932 254.861,375.628C255.148,376.324 255.979,376.868 256.658,376.543C257.095,376.335 257.322,375.855 257.512,375.41C258.043,374.163 258.538,372.902 258.999,371.628" style="fill:none;fill-rule:nonzero;stroke:rgb(149,207,182);stroke-width:1px;"/>
                    <path d="M246.069,426.061C245.516,427.442 245.366,428.982 245.642,430.443C245.741,430.968 245.968,431.56 246.48,431.709C247.003,431.86 247.521,431.459 247.861,431.034C249.278,429.255 249.529,426.537 251.464,425.343C251.317,426.811 251.503,428.311 252.004,429.698C252.22,430.296 252.627,430.966 253.264,430.964C253.901,430.962 254.3,430.296 254.569,429.719C255.167,428.436 255.764,427.153 256.362,425.87" style="fill:none;fill-rule:nonzero;stroke:rgb(149,207,182);stroke-width:1px;"/>
                </g>
                <g>
                    <g>
                        <path d="M204.159,208.541L203.902,243.113L213.478,243.184L213.735,208.541L204.159,208.541Z" style="fill:rgb(149,207,182);fill-rule:nonzero;stroke:black;stroke-width:0.5px;"/>
                        <g transform="matrix(0.0074,-1,1,0.0074,11.7535,445.42)">
                            <rect x="203.73" y="212.001" width="53.038" height="9.576" style="fill:rgb(216,156,199);stroke:black;stroke-width:0.5px;"/>
                        </g>
                        <g transform="matrix(0.0074,-1,1,0.0074,29.8297,469.842)">
                            <rect x="228.016" y="215.107" width="47.145" height="9.576" style="fill:rgb(149,207,182);stroke:black;stroke-width:0.5px;"/>
                        </g>
                        <g transform="matrix(0.0074,-1,1,0.0074,37.8719,501.074)">
                            <rect x="259.187" y="226.672" width="24.309" height="9.576" style="fill:rgb(216,156,199);stroke:black;stroke-width:0.5px;"/>
                        </g>
                    </g>
                    <path d="M195.914,243.129L280.125,243.859" style="fill:none;fill-rule:nonzero;stroke:rgb(27,34,88);stroke-width:0.75px;"/>
                    <path d="M233.426,193.589L233.426,208.173" style="fill:none;fill-rule:nonzero;stroke:black;stroke-width:0.5px;"/>
                    <path d="M233.016,210.35C233.159,212.305 233.162,214.271 233.023,216.227" style="fill:none;fill-rule:nonzero;stroke:black;stroke-width:0.5px;"/>
                    <path d="M211.451,217.534C211.524,220.146 211.597,222.758 211.67,225.37" style="fill:none;fill-rule:nonzero;stroke:black;stroke-width:0.5px;"/>
                    <path d="M274.814,225.805L274.814,231.9" style="fill:none;fill-rule:nonzero;stroke:black;stroke-width:0.5px;"/>
                    <path d="M274.596,235.382L274.596,238.245" style="fill:none;fill-rule:nonzero;stroke:black;stroke-width:0.5px;"/>
                    <path d="M254.788,221.016L254.788,230.161" style="fill:none;fill-rule:nonzero;stroke:black;stroke-width:0.5px;"/>
                    <path d="M253.047,218.186L253.047,220.798" style="fill:none;fill-rule:nonzero;stroke:black;stroke-width:0.5px;"/>
                    <path d="M254.57,214.268L254.57,216.88" style="fill:none;fill-rule:nonzero;stroke:black;stroke-width:0.5px;"/>
                </g>
                <g>
                    <g transform="matrix(0.2286,-0.9735,0.9735,0.2286,188.401,442.987)">
                        <circle cx="373.737" cy="102.608" r="11.502" style="fill:white;stroke:black;stroke-width:0.5px;"/>
                    </g>
                    <g>
                        <path d="M373.065,108.951C373.005,108.963 372.958,108.969 372.922,108.969L372.815,108.969C372.446,108.969 372.113,108.957 371.815,108.933C371.518,108.909 371.241,108.873 370.985,108.826C370.729,108.778 370.482,108.719 370.244,108.648C370.006,108.577 369.762,108.499 369.512,108.416C369.536,108.155 369.586,107.89 369.664,107.622C369.741,107.354 369.828,107.096 369.923,106.846C370.327,106.977 370.744,107.093 371.173,107.194C371.601,107.295 372.119,107.346 372.726,107.346C373.702,107.346 374.428,107.156 374.904,106.775C375.38,106.394 375.618,105.871 375.618,105.205C375.618,104.872 375.567,104.592 375.466,104.366C375.365,104.14 375.213,103.944 375.011,103.777C374.809,103.611 374.553,103.459 374.244,103.322C373.935,103.185 373.572,103.027 373.155,102.849L372.298,102.492C371.941,102.349 371.614,102.189 371.316,102.01C371.018,101.832 370.759,101.62 370.54,101.376C370.32,101.132 370.15,100.843 370.031,100.51C369.912,100.177 369.853,99.778 369.853,99.314C369.853,98.398 370.13,97.648 370.683,97.065C371.236,96.482 372.03,96.119 373.066,95.976L373.066,94.245C373.244,94.198 373.447,94.174 373.673,94.174C373.911,94.174 374.125,94.198 374.315,94.245L374.315,95.905C374.815,95.929 375.306,95.982 375.787,96.065C376.269,96.149 376.682,96.255 377.028,96.386C376.968,96.886 376.837,97.38 376.635,97.867C376.314,97.748 375.945,97.644 375.528,97.555C375.111,97.466 374.629,97.421 374.082,97.421C373.332,97.421 372.755,97.564 372.351,97.849C371.946,98.135 371.744,98.575 371.744,99.17C371.744,99.455 371.797,99.703 371.905,99.911C372.012,100.119 372.17,100.304 372.378,100.464C372.586,100.625 372.836,100.77 373.128,100.901C373.419,101.032 373.749,101.175 374.119,101.33L374.797,101.615C375.225,101.794 375.612,101.978 375.957,102.168C376.302,102.358 376.596,102.585 376.84,102.846C377.084,103.108 377.274,103.417 377.411,103.774C377.548,104.131 377.616,104.565 377.616,105.077C377.616,106.088 377.328,106.912 376.75,107.549C376.173,108.186 375.361,108.605 374.314,108.807L374.314,110.859C374.219,110.883 374.118,110.901 374.01,110.913C373.903,110.925 373.802,110.931 373.707,110.931C373.6,110.931 373.493,110.925 373.386,110.913C373.279,110.901 373.172,110.883 373.065,110.859L373.065,108.951Z" style="fill-rule:nonzero;"/>
                    </g>
                </g>
                <g>
                    <g transform="matrix(0.9239,-0.3827,0.3827,0.9239,-70.8519,52.3792)">
                        <circle cx="96.238" cy="204.288" r="12.417" style="fill:white;stroke:black;stroke-width:0.5px;"/>
                    </g>
                    <g>
                        <path d="M95.513,211.136C95.448,211.149 95.397,211.155 95.359,211.155L95.243,211.155C94.845,211.155 94.485,211.142 94.164,211.116C93.843,211.09 93.544,211.052 93.268,211.001C92.992,210.949 92.725,210.885 92.468,210.808C92.211,210.731 91.948,210.648 91.678,210.557C91.703,210.275 91.758,209.989 91.842,209.7C91.925,209.411 92.018,209.132 92.121,208.862C92.558,209.004 93.008,209.129 93.47,209.238C93.933,209.347 94.491,209.402 95.146,209.402C96.199,209.402 96.983,209.197 97.497,208.785C98.011,208.374 98.268,207.809 98.268,207.09C98.268,206.73 98.213,206.429 98.104,206.184C97.995,205.94 97.831,205.728 97.612,205.548C97.393,205.368 97.117,205.205 96.783,205.057C96.449,204.91 96.057,204.739 95.608,204.546L94.683,204.161C94.298,204.007 93.944,203.833 93.623,203.641C93.302,203.448 93.022,203.221 92.785,202.957C92.547,202.694 92.364,202.382 92.236,202.022C92.108,201.663 92.044,201.232 92.044,200.731C92.044,199.742 92.343,198.933 92.94,198.303C93.537,197.674 94.395,197.282 95.512,197.128L95.512,195.259C95.705,195.208 95.923,195.182 96.167,195.182C96.424,195.182 96.655,195.208 96.86,195.259L96.86,197.051C97.4,197.077 97.93,197.135 98.45,197.224C98.97,197.314 99.417,197.43 99.789,197.571C99.725,198.111 99.583,198.644 99.365,199.17C99.018,199.042 98.62,198.929 98.17,198.833C97.72,198.737 97.2,198.688 96.609,198.688C95.8,198.688 95.177,198.842 94.74,199.15C94.303,199.458 94.085,199.934 94.085,200.576C94.085,200.884 94.143,201.151 94.258,201.376C94.374,201.601 94.544,201.8 94.769,201.973C94.993,202.146 95.263,202.304 95.578,202.445C95.893,202.587 96.249,202.741 96.647,202.908L97.379,203.216C97.841,203.409 98.259,203.608 98.631,203.813C99.003,204.019 99.321,204.263 99.585,204.545C99.848,204.828 100.054,205.162 100.202,205.547C100.35,205.932 100.424,206.401 100.424,206.954C100.424,208.046 100.112,208.936 99.489,209.623C98.866,210.31 97.989,210.763 96.859,210.982L96.859,213.198C96.756,213.224 96.647,213.243 96.531,213.256C96.416,213.269 96.306,213.275 96.204,213.275C96.088,213.275 95.973,213.268 95.857,213.256C95.741,213.243 95.626,213.224 95.51,213.198L95.51,211.136L95.513,211.136Z" style="fill-rule:nonzero;"/>
                    </g>
                </g>
                <g>
                    <g transform="matrix(0.2259,-0.9741,0.9741,0.2259,129.985,582.21)">
                        <circle cx="431.329" cy="209.316" r="11.025" style="fill:white;stroke:black;stroke-width:0.5px;"/>
                    </g>
                    <g>
                        <path d="M430.685,215.397C430.628,215.408 430.582,215.414 430.548,215.414L430.445,215.414C430.091,215.414 429.772,215.402 429.487,215.38C429.202,215.357 428.937,215.323 428.691,215.277C428.446,215.231 428.209,215.174 427.981,215.106C427.753,215.038 427.519,214.964 427.28,214.884C427.303,214.633 427.351,214.379 427.425,214.123C427.499,213.866 427.582,213.618 427.673,213.379C428.061,213.505 428.46,213.616 428.871,213.712C429.282,213.809 429.778,213.857 430.359,213.857C431.294,213.857 431.99,213.675 432.446,213.31C432.902,212.945 433.13,212.443 433.13,211.804C433.13,211.485 433.081,211.217 432.985,211C432.888,210.783 432.743,210.595 432.549,210.435C432.355,210.275 432.11,210.13 431.813,209.999C431.517,209.868 431.169,209.717 430.769,209.546L429.948,209.204C429.606,209.067 429.292,208.913 429.007,208.742C428.721,208.571 428.473,208.369 428.263,208.135C428.052,207.901 427.889,207.625 427.775,207.305C427.661,206.986 427.604,206.604 427.604,206.159C427.604,205.281 427.869,204.562 428.4,204.003C428.93,203.444 429.692,203.096 430.684,202.959L430.684,201.299C430.855,201.253 431.049,201.231 431.266,201.231C431.494,201.231 431.699,201.254 431.882,201.299L431.882,202.89C432.361,202.913 432.832,202.964 433.293,203.044C433.755,203.124 434.151,203.227 434.482,203.352C434.425,203.831 434.299,204.304 434.106,204.772C433.798,204.658 433.444,204.558 433.045,204.473C432.645,204.388 432.184,204.345 431.659,204.345C430.941,204.345 430.387,204.482 429.999,204.756C429.611,205.03 429.418,205.452 429.418,206.022C429.418,206.296 429.469,206.533 429.572,206.732C429.675,206.932 429.826,207.108 430.025,207.262C430.224,207.416 430.464,207.556 430.743,207.681C431.022,207.807 431.339,207.943 431.693,208.092L432.343,208.366C432.754,208.537 433.124,208.714 433.455,208.896C433.786,209.079 434.068,209.296 434.302,209.546C434.536,209.797 434.718,210.094 434.85,210.436C434.981,210.778 435.047,211.195 435.047,211.685C435.047,212.655 434.77,213.444 434.217,214.054C433.664,214.664 432.885,215.066 431.882,215.26L431.882,217.227C431.791,217.25 431.694,217.267 431.591,217.278C431.489,217.289 431.392,217.295 431.3,217.295C431.197,217.295 431.095,217.289 430.992,217.278C430.889,217.267 430.787,217.249 430.684,217.227L430.684,215.397L430.685,215.397Z" style="fill-rule:nonzero;"/>
                    </g>
                </g>
                <g>
                    <g>
                        <rect x="148.137" y="77.866" width="49.116" height="30.913"/>
                        <rect x="142.506" y="73.381" width="49.116" height="30.913" style="fill:rgb(149,207,182);stroke:black;stroke-width:0.5px;"/>
                        <path d="M191.622,73.381C191.622,73.381 168.855,87.375 167.064,88.837L142.506,73.381" style="fill:none;fill-rule:nonzero;stroke:black;stroke-width:0.5px;"/>
                    </g>
                    <path d="M189.415,92.531C189.634,95.123 189.642,97.733 189.438,100.327" style="fill:none;fill-rule:nonzero;stroke:black;stroke-width:0.5px;"/>
                    <path d="M189.334,90.991C189.37,90.034 189.406,89.076 189.442,88.119" style="fill:none;fill-rule:nonzero;stroke:black;stroke-width:0.5px;"/>
                    <path d="M187.991,90.376L187.991,92.428" style="fill:none;fill-rule:nonzero;stroke:black;stroke-width:0.5px;"/>
                    <path d="M167.885,86.375C167.885,86.375 171.342,84.191 172.501,83.4" style="fill:none;fill-rule:nonzero;stroke:black;stroke-width:0.5px;"/>
                    <path d="M173.919,82.351C174.406,81.971 174.93,81.637 175.48,81.356" style="fill:none;fill-rule:nonzero;stroke:black;stroke-width:0.5px;"/>
                </g>
                <g>
                    <g>
                        <path d="M396.542,137.414C406.951,137.426 417.353,139.307 427.011,143.133C433.334,145.638 441.428,150.462 441.428,158.252C441.428,165.057 434.814,169.73 429.365,172.446C425.196,174.523 420.707,175.945 416.169,176.971C410.077,178.339 403.701,179.135 397.298,179.251C396.751,185.933 394.072,192.45 389.652,197.5C387.981,199.408 385.916,201.192 383.406,201.553C387.557,194.857 389.469,186.865 389.071,179.004C380.964,178.38 372.986,176.588 365.665,173.361C359.612,170.693 351.657,165.804 351.656,158.252C351.657,149.241 361.473,144.387 368.822,141.913C377.706,138.922 387.128,137.404 396.542,137.414Z" style="fill:rgb(212,113,114);fill-rule:nonzero;stroke:black;stroke-width:0.5px;"/>
                        <path d="M427.626,156.618C427.21,160.331 423.846,163.422 420.27,163.378C416.694,163.334 413.401,160.161 413.069,156.439C412.944,155.042 413.351,153.394 414.585,152.84C415.819,152.286 417.324,153.197 417.844,154.492C418.363,155.787 418.099,157.29 417.566,158.579C415.944,162.498 411.733,165.058 407.673,164.593C403.613,164.128 400.032,160.676 399.26,156.483C398.996,155.049 399.149,153.32 400.303,152.498C401.734,151.479 403.874,152.681 404.372,154.414C404.87,156.147 404.144,158.029 403.098,159.472C400.92,162.474 397.226,164.009 393.673,163.849C392.078,163.777 389.99,163.389 388.664,162.428C386.717,161.018 384.771,156.485 386.3,154.207C386.602,153.757 387.09,153.405 387.616,153.428C387.974,153.443 388.309,153.629 388.58,153.873C389.278,154.501 389.593,155.495 389.62,156.457C389.676,158.439 388.563,160.656 387.311,162.109C384.982,164.814 380.938,165.621 377.729,164.211C374.52,162.801 372.279,159.37 371.963,155.746C371.845,154.388 372.4,152.577 373.703,152.647C374.664,152.698 375.235,153.795 375.446,154.776C376.057,157.607 375.192,160.738 373.231,162.792C371.27,164.846 368.277,165.758 365.568,165.125" style="fill:none;fill-rule:nonzero;stroke:black;stroke-width:0.5px;"/>
                    </g>
                    <path d="M435.802,162.891C433.881,167.298 429.146,169.776 424.527,171.11" style="fill:none;fill-rule:nonzero;stroke:black;stroke-width:0.5px;"/>
                    <path d="M422.215,172.188C420.75,172.882 419.165,173.321 417.551,173.477" style="fill:none;fill-rule:nonzero;stroke:black;stroke-width:0.5px;"/>
                    <path d="M368.843,145.712C365.232,146.902 361.817,148.685 358.777,150.969" style="fill:none;fill-rule:nonzero;stroke:black;stroke-width:0.5px;"/>
                </g>
                <g>
                    <g>
                        <path d="M151.875,133.784C151.846,133.76 151.817,133.736 151.787,133.712C150.036,132.292 147.961,131.328 145.849,130.542C139.717,128.26 133.148,127.382 126.616,127.024C117.913,126.546 109.356,126.587 100.693,127.479C89.527,128.628 73.361,130.856 71.224,144.46C71.001,145.877 71.021,147.329 71.329,148.732C72.346,153.36 76.263,156.92 80.629,158.761C84.995,160.602 89.813,161.002 94.537,161.371C108.614,162.47 122.951,163.454 136.772,160.861C136.815,162.72 136.898,164.585 137.337,166.388C138.809,172.433 144.607,177.144 150.825,177.349C146.424,175.3 143.784,170.539 143.005,165.747C142.669,163.677 142.636,161.589 142.759,159.498C147.021,158.304 151.232,156.484 153.97,153.057C158.539,147.339 157.458,138.395 151.875,133.784Z" style="fill:rgb(212,113,114);fill-rule:nonzero;stroke:black;stroke-width:0.5px;"/>
                        <path d="M86.459,150.736C87.839,146.606 90.988,143.1 94.947,141.288C96.276,140.68 97.765,140.251 99.194,140.557C101.958,141.149 103.473,144.249 103.641,147.071C103.702,148.089 103.629,149.159 103.112,150.038C102.595,150.917 101.534,151.54 100.548,151.276C99.526,151.003 98.916,149.86 98.967,148.804C99.018,147.747 99.589,146.784 100.259,145.965C101.722,144.175 103.715,142.858 105.871,142.022C108.705,140.923 112.13,140.709 114.608,142.469C117.086,144.229 117.812,148.391 115.446,150.3C114.965,150.688 114.343,150.97 113.737,150.849C112.309,150.563 112.179,148.515 112.758,147.179C114.132,144.011 117.442,141.967 120.854,141.434C122.453,141.184 124.209,141.258 125.523,142.203C128.003,143.986 127.671,147.889 126.112,150.515C125.821,151.004 125.465,151.502 124.932,151.701C123.93,152.075 122.817,151.117 122.674,150.057C122.531,148.997 123.077,147.967 123.722,147.113C125.449,144.826 128.042,143.209 130.855,142.666C133.082,142.236 135.774,142.676 136.917,144.635C138.057,146.588 137.141,149.113 135.809,150.94C135.589,151.241 135.3,151.564 134.928,151.55C134.593,151.537 134.338,151.255 134.128,150.994C131.721,148.004 133.611,145.964 136.228,143.816C137.958,142.395 140.421,141.921 142.555,142.598" style="fill:none;fill-rule:nonzero;stroke:rgb(34,34,33);stroke-width:0.5px;"/>
                    </g>
                    <path d="M153.307,144.753C153.459,147.313 152.18,149.829 150.273,151.544C148.366,153.259 145.894,154.243 143.379,154.75" style="fill:none;fill-rule:nonzero;stroke:black;stroke-width:0.5px;"/>
                    <path d="M152.747,141.562C152.648,139.851 151.391,138.461 150.205,137.225" style="fill:none;fill-rule:nonzero;stroke:black;stroke-width:0.5px;"/>
                    <path d="M82.576,134.5C79.85,135.355 77.452,137.216 75.947,139.644C74.442,142.072 73.843,145.048 74.29,147.869" style="fill:none;fill-rule:nonzero;stroke:black;stroke-width:0.5px;"/>
                    <path d="M74.991,150.26C75.45,151.582 76.27,152.776 77.338,153.679" style="fill:none;fill-rule:nonzero;stroke:black;stroke-width:0.5px;"/>
                    <path d="M77.741,140.376C76.94,141.453 76.427,142.743 76.269,144.076" style="fill:none;fill-rule:nonzero;stroke:black;stroke-width:0.5px;"/>
                </g>
                <path d="M132.857,438.831L144.882,438.831" style="fill:none;fill-rule:nonzero;stroke:rgb(34,34,33);stroke-width:0.5px;"/>
                <path d="M71.301,438.831C86.943,439.028 102.943,439.028 118.78,438.831" style="fill:none;fill-rule:nonzero;stroke:rgb(34,34,33);stroke-width:0.5px;"/>
                <path d="M156.52,438.831L191.809,438.831" style="fill:none;fill-rule:nonzero;stroke:rgb(34,34,33);stroke-width:0.5px;"/>
                <path d="M367.792,448.618L376.33,448.618" style="fill:none;fill-rule:nonzero;stroke:rgb(34,34,33);stroke-width:0.5px;"/>
            </g>
        </g>
    </g>
</svg>
